<svg xmlns="http://www.w3.org/2000/svg" xmlns:xlink="http://www.w3.org/1999/xlink" width="187" height="38.024" viewBox="0 0 187 38.024">
  <defs>
    <radialGradient id="radial-gradient" cx="-0.025" cy="1.003" r="1.849" gradientUnits="objectBoundingBox">
      <stop offset="0" stop-color="#f5ec53"/>
      <stop offset="0.241" stop-color="#e48244"/>
      <stop offset="0.397" stop-color="#d05667"/>
      <stop offset="0.489" stop-color="#c84278"/>
      <stop offset="1" stop-color="#192cfa"/>
    </radialGradient>
  </defs>
  <g id="Group_90" data-name="Group 90" transform="translate(434.655 -161.858)">
    <g id="Group_97" data-name="Group 97" transform="translate(-285.68 161.858)">
      <path id="Path_448" data-name="Path 448" d="M-134.629,199.882h0a19.012,19.012,0,0,1-19.012-19.012h0a19.012,19.012,0,0,1,19.012-19.012h0a19.012,19.012,0,0,1,19.013,19.012h0A19.012,19.012,0,0,1-134.629,199.882Z" transform="translate(153.641 -161.858)" fill="#c3271a"/>
      <g id="Group_96" data-name="Group 96" transform="translate(3.796 8.292)">
        <path id="Path_449" data-name="Path 449" d="M-116.684,180.847a3.824,3.824,0,0,0-2.69-2.708c-2.373-.64-11.89-.64-11.89-.64s-9.516,0-11.889.64a3.824,3.824,0,0,0-2.69,2.708,40.1,40.1,0,0,0-.636,7.373,40.1,40.1,0,0,0,.636,7.373,3.824,3.824,0,0,0,2.69,2.708c2.373.64,11.889.64,11.889.64s9.516,0,11.89-.64a3.824,3.824,0,0,0,2.69-2.708,40.1,40.1,0,0,0,.636-7.373A40.1,40.1,0,0,0-116.684,180.847Z" transform="translate(146.48 -177.499)" fill="#fff"/>
        <path id="Path_450" data-name="Path 450" d="M-123.648,198.235v-9.05l7.954,4.525Z" transform="translate(135.752 -182.99)" fill="#c3271a"/>
      </g>
    </g>
    <g id="Group_98" data-name="Group 98" transform="translate(-384.997 161.858)">
      <path id="Path_451" data-name="Path 451" d="M-321.971,199.882h0a19.012,19.012,0,0,1-19.013-19.012h0a19.012,19.012,0,0,1,19.013-19.012h0a19.012,19.012,0,0,1,19.012,19.012h0A19.012,19.012,0,0,1-321.971,199.882Z" transform="translate(340.984 -161.858)" fill="#29a9e1"/>
      <path id="Path_452" data-name="Path 452" d="M-324.228,196.789a11.763,11.763,0,0,0,6.371,1.868,11.757,11.757,0,0,0,11.815-12.365,8.433,8.433,0,0,0,2.074-2.151,8.319,8.319,0,0,1-2.387.654,4.162,4.162,0,0,0,1.827-2.3,8.326,8.326,0,0,1-2.638,1.009,4.153,4.153,0,0,0-3.034-1.313,4.16,4.16,0,0,0-4.049,5.1,11.794,11.794,0,0,1-8.567-4.343,4.162,4.162,0,0,0,1.286,5.55,4.135,4.135,0,0,1-1.883-.52,4.162,4.162,0,0,0,3.333,4.129,4.162,4.162,0,0,1-1.876.07,4.159,4.159,0,0,0,3.882,2.887A8.352,8.352,0,0,1-324.228,196.789Z" transform="translate(333.111 -171.412)" fill="#fff"/>
    </g>
    <g id="Group_99" data-name="Group 99" transform="translate(-434.655 161.858)">
      <path id="Path_453" data-name="Path 453" d="M-415.643,199.882h0a19.012,19.012,0,0,1-19.012-19.012h0a19.012,19.012,0,0,1,19.012-19.012h0A19.012,19.012,0,0,1-396.63,180.87h0A19.012,19.012,0,0,1-415.643,199.882Z" transform="translate(434.655 -161.858)" fill="#557ccb"/>
      <path id="Path_454" data-name="Path 454" d="M-406.39,199.027h4.628V187.438h3.229l.344-3.881h-3.573v-2.21c0-.915.183-1.277,1.068-1.277h2.5v-4.027h-3.2c-3.444,0-5,1.517-5,4.42v3.094H-408.8v3.929h2.407Z" transform="translate(422.505 -168.523)" fill="#fff"/>
    </g>
    <g id="Group_101" data-name="Group 101" transform="translate(-335.338 161.858)">
      <path id="Path_455" data-name="Path 455" d="M-228.3,199.882h0a19.012,19.012,0,0,1-19.012-19.012h0A19.012,19.012,0,0,1-228.3,161.858h0a19.012,19.012,0,0,1,19.012,19.012h0A19.012,19.012,0,0,1-228.3,199.882Z" transform="translate(247.312 -161.858)" fill="url(#radial-gradient)"/>
      <g id="Group_100" data-name="Group 100" transform="translate(8.588 8.588)">
        <path id="Path_456" data-name="Path 456" d="M-220.688,179.935c2.784,0,3.113.011,4.212.061a5.773,5.773,0,0,1,1.936.359,3.234,3.234,0,0,1,1.2.78,3.225,3.225,0,0,1,.78,1.2,5.752,5.752,0,0,1,.359,1.936c.05,1.1.061,1.429.061,4.212s-.011,3.113-.061,4.212a5.752,5.752,0,0,1-.359,1.936,3.225,3.225,0,0,1-.78,1.2,3.234,3.234,0,0,1-1.2.78,5.769,5.769,0,0,1-1.936.359c-1.1.05-1.429.06-4.212.06s-3.113-.011-4.212-.06a5.762,5.762,0,0,1-1.936-.359,3.232,3.232,0,0,1-1.2-.78,3.232,3.232,0,0,1-.78-1.2,5.766,5.766,0,0,1-.359-1.936c-.05-1.1-.061-1.429-.061-4.212s.011-3.113.061-4.212a5.766,5.766,0,0,1,.359-1.936,3.232,3.232,0,0,1,.78-1.2,3.231,3.231,0,0,1,1.2-.78A5.766,5.766,0,0,1-224.9,180c1.1-.05,1.429-.061,4.212-.061m0-1.878c-2.831,0-3.186.012-4.3.063a7.67,7.67,0,0,0-2.53.485,5.1,5.1,0,0,0-1.846,1.2,5.1,5.1,0,0,0-1.2,1.846,7.643,7.643,0,0,0-.485,2.53c-.051,1.112-.063,1.467-.063,4.3s.012,3.186.063,4.3a7.646,7.646,0,0,0,.485,2.53,5.1,5.1,0,0,0,1.2,1.846,5.11,5.11,0,0,0,1.846,1.2,7.656,7.656,0,0,0,2.53.485c1.112.05,1.467.063,4.3.063s3.186-.012,4.3-.063a7.659,7.659,0,0,0,2.53-.485,5.119,5.119,0,0,0,1.846-1.2,5.119,5.119,0,0,0,1.2-1.846,7.66,7.66,0,0,0,.485-2.53c.05-1.112.063-1.467.063-4.3s-.012-3.186-.063-4.3a7.657,7.657,0,0,0-.485-2.53,5.114,5.114,0,0,0-1.2-1.846,5.113,5.113,0,0,0-1.846-1.2,7.673,7.673,0,0,0-2.53-.485c-1.112-.05-1.467-.063-4.3-.063" transform="translate(231.113 -178.057)" fill="#fff"/>
        <path id="Path_457" data-name="Path 457" d="M-216.194,187.624a5.353,5.353,0,0,0-5.353,5.353,5.354,5.354,0,0,0,5.353,5.353,5.353,5.353,0,0,0,5.353-5.353,5.353,5.353,0,0,0-5.353-5.353m0,8.828a3.475,3.475,0,0,1-3.475-3.475,3.474,3.474,0,0,1,3.475-3.474,3.475,3.475,0,0,1,3.475,3.474,3.475,3.475,0,0,1-3.475,3.475" transform="translate(226.618 -182.552)" fill="#fff"/>
        <path id="Path_458" data-name="Path 458" d="M-200.81,186.116a1.251,1.251,0,0,1-1.251,1.251,1.251,1.251,0,0,1-1.251-1.251,1.251,1.251,0,0,1,1.251-1.251,1.251,1.251,0,0,1,1.251,1.251" transform="translate(218.05 -181.256)" fill="#fff"/>
      </g>
    </g>
  </g>
</svg>
