<svg xmlns="http://www.w3.org/2000/svg" width="165" height="33.505" viewBox="0 0 165 33.505"><defs><style>.a{opacity:0.74;}.b{fill:#014141;}</style></defs><g class="a"><g transform="translate(131.495)"><path class="b" d="M738.076,1537.189a3.111,3.111,0,1,1,3.106,3.1A3.106,3.106,0,0,1,738.076,1537.189Z" transform="translate(-723.991 -1520.46)"/><rect class="b" width="2.648" height="2.648" rx="1.15" transform="translate(20.492 10.533)"/><path class="b" d="M741.535,1538.082h1.858v7.387c0,.282-.062.556-.34.556H730.918c-.278,0-.322-.274-.322-.556v-7.387h1.84c-.265,0-.353.989-.353,1.438a4.923,4.923,0,0,0,9.844.024C741.927,1539.095,741.861,1538.082,741.535,1538.082Z" transform="translate(-719.812 -1522.695)"/><path class="b" d="M722.911,1503.212a16.752,16.752,0,1,0,16.75,16.755A16.755,16.755,0,0,0,722.911,1503.212Zm8.591,22.879a1.876,1.876,0,0,1-2,1.774H717.165a1.861,1.861,0,0,1-1.99-1.774v-12.342a1.858,1.858,0,0,1,1.99-1.77H729.5a1.873,1.873,0,0,1,2,1.77Z" transform="translate(-706.156 -1503.212)"/></g><g transform="translate(87.664)"><path class="b" d="M623.578,1503.212a16.752,16.752,0,1,0,16.75,16.755A16.755,16.755,0,0,0,623.578,1503.212Zm6.367,13.2c0,.15.009.3.009.45a9.715,9.715,0,0,1-9.646,9.893,9.446,9.446,0,0,1-5.2-1.562,6.962,6.962,0,0,0,.807.049,6.713,6.713,0,0,0,4.214-1.487,3.407,3.407,0,0,1-3.168-2.414,3.364,3.364,0,0,0,.635.062,3.565,3.565,0,0,0,.931-.124,3.428,3.428,0,0,1-2.687-3.411v-.04a3.183,3.183,0,0,0,1.5.433,3.544,3.544,0,0,1-1.077-4.642,9.534,9.534,0,0,0,6.985,3.631,3.363,3.363,0,0,1-.09-.79,3.434,3.434,0,0,1,3.388-3.477,3.345,3.345,0,0,1,2.475,1.094,6.607,6.607,0,0,0,2.153-.843,3.454,3.454,0,0,1-1.491,1.924,6.528,6.528,0,0,0,1.946-.547A6.912,6.912,0,0,1,629.945,1516.415Z" transform="translate(-606.823 -1503.212)"/></g><g transform="translate(43.832)"><path class="b" d="M524.244,1503.212a16.752,16.752,0,1,0,16.75,16.755A16.755,16.755,0,0,0,524.244,1503.212Zm-4.205,24.212H516.95v-10.149h3.089Zm-1.725-11.031h-.022a1.837,1.837,0,0,1-1.893-1.853,1.811,1.811,0,0,1,1.937-1.8,1.829,1.829,0,1,1-.022,3.654Zm14.522,11.031h-3.971v-5.141c0-1.363-.455-2.29-1.694-2.29a1.848,1.848,0,0,0-1.739,1.231,2.232,2.232,0,0,0-.1.821v5.379h-3.415s.044-9.266,0-10.149h3.415v1.734a3.847,3.847,0,0,1,3.318-1.672c2.255,0,4.183,1.443,4.183,4.558Z" transform="translate(-507.489 -1503.212)"/></g><path class="b" d="M424.911,1503.212a16.752,16.752,0,1,0,16.75,16.755A16.755,16.755,0,0,0,424.911,1503.212Zm8.15,23.837c0,.494-.243,1.02-.733,1.02h-4.121v-6.177h2.1l.318-2.648h-2.414v-1.58c0-.706.19-1.068,1.2-1.068h1.443v-2.308c-.441-.031-1.125-.1-2.021-.1a3.045,3.045,0,0,0-3.274,3.23v1.823h-2.206v2.648h2.206v6.177h-7.643c-.494,0-.741-.526-.741-1.02v-14.412c0-.494.247-.9.741-.9h14.412c.49,0,.733.4.733.9Z" transform="translate(-408.156 -1503.212)"/></g></svg>