<svg xmlns="http://www.w3.org/2000/svg" width="35.338" height="38" viewBox="0 0 35.338 38"><defs><style>.a{fill:#014141;opacity:0.56;}</style></defs><path class="a" d="M52.944,8.016A3.236,3.236,0,0,0,50.718,5.54a3.161,3.161,0,0,0-1.046-.134,24.925,24.925,0,0,0-12.448,4.3q-.3-.727-.642-1.428A23.275,23.275,0,0,0,30.994.771a3.251,3.251,0,0,0-3.24-.565,3.162,3.162,0,0,0-.945.565,23.861,23.861,0,0,0-6.258,9,.558.558,0,1,0,1.031.427,23.5,23.5,0,0,1,5.061-7.753A30.949,30.949,0,0,0,24.5,8.384a63.748,63.748,0,0,0-1.757,15.862,25.032,25.032,0,0,0,1.689,9.918A9.209,9.209,0,0,0,25.725,36.3a9.106,9.106,0,0,1-3.757-2.725,14.394,14.394,0,0,1-2.921-9.334,38.288,38.288,0,0,1,1.788-12.041.558.558,0,0,0-1.059-.351,39.4,39.4,0,0,0-1.845,12.392A15.484,15.484,0,0,0,21.11,34.293a10.076,10.076,0,0,0,10.51,3.339A9.932,9.932,0,0,0,34.309,38a11.3,11.3,0,0,0,4.149-.817,16.808,16.808,0,0,0,6.784-5.28,43.237,43.237,0,0,0,4.367-6.578.558.558,0,1,0-.985-.525,42.114,42.114,0,0,1-4.255,6.407,15.7,15.7,0,0,1-6.321,4.938,9.975,9.975,0,0,1-4.48.708,10.376,10.376,0,0,0,3.124-2.56,11.917,11.917,0,0,0,.909-1.254A32.971,32.971,0,0,0,41.481,28.9,63.748,63.748,0,0,0,50,15.408a30.958,30.958,0,0,0,2.026-5.972,25.446,25.446,0,0,1-2.431,13.4.558.558,0,0,0,1.016.461c3.191-7.024,2.831-12.586,2.332-15.276ZM38.9,15.027c5.32-5.191,9.364-7.211,11.416-7.973L39.712,20.35a39.06,39.06,0,0,0-.807-5.323Zm9.582-8.411A40.29,40.29,0,0,0,38.6,13.773q-.411-1.551-.954-3A24.7,24.7,0,0,1,48.486,6.616ZM23.858,24.246A62.649,62.649,0,0,1,25.579,8.665a26.566,26.566,0,0,1,2.765-7.01v35.16c-1.1-.273-2.11-1.352-2.894-3.106a23.947,23.947,0,0,1-1.592-9.463ZM35.834,33.58A9.105,9.105,0,0,1,32.077,36.3a9.211,9.211,0,0,0,1.294-2.141,25.032,25.032,0,0,0,1.689-9.918.558.558,0,1,0-1.116,0,23.95,23.95,0,0,1-1.592,9.463c-.784,1.754-1.8,2.833-2.894,3.106V1.655c1.561,2.59,4.107,8.524,4.448,20.009a.558.558,0,0,0,1.115-.033c-.3-10.052-2.278-15.992-3.859-19.179a22.94,22.94,0,0,1,4.415,6.316,35.359,35.359,0,0,1,3.177,15.479,14.394,14.394,0,0,1-2.921,9.334ZM48.981,14.954a62.65,62.65,0,0,1-8.373,13.252q-.81,1.015-1.633,1.912a18.418,18.418,0,0,0,.9-5.872q0-1.138-.052-2.242L51.193,7.75a26.571,26.571,0,0,1-2.211,7.2Z" transform="translate(-17.932 0)"/></svg>