<svg xmlns="http://www.w3.org/2000/svg" width="40" height="40.004" viewBox="0 0 40 40.004"><defs><style>.a{opacity:0.56;}.b{fill:#014141;}</style></defs><g class="a" transform="translate(-16.015 -16)"><path class="b" d="M55.348,41.334H52.015v-4A11.3,11.3,0,0,0,48.4,29.042a13.33,13.33,0,0,1,3.38-4.533.667.667,0,0,0-.431-1.175,10.529,10.529,0,0,0-5.008,1.127,11.861,11.861,0,0,1,.88-1.278,15.408,15.408,0,0,1,1.892-2.006A.667.667,0,0,0,48.681,20a10.719,10.719,0,0,0-4.745,1c-.187-1.394-.819-3.858-2.957-4.926a.667.667,0,0,0-.6,0c-2.135,1.068-2.769,3.527-2.956,4.922A10.708,10.708,0,0,0,32.681,20a.667.667,0,0,0-.431,1.175,15.4,15.4,0,0,1,1.892,2.007,11.875,11.875,0,0,1,.878,1.275,10.537,10.537,0,0,0-5.006-1.123.667.667,0,0,0-.431,1.175,13.324,13.324,0,0,1,3.38,4.533,11.3,11.3,0,0,0-3.616,8.292v.077a6.15,6.15,0,0,0-2.229.849,1.962,1.962,0,0,1-.232.149A10.613,10.613,0,0,1,27.9,34.371h0a.667.667,0,1,0-1.109-.74h0a11.7,11.7,0,0,0-1.263,4.937,1.89,1.89,0,0,1-.62-.308,6.37,6.37,0,0,0-2.888-.925,5.752,5.752,0,0,0-4.428,2,7.129,7.129,0,0,0-1.486,5.736l.417,2.8a14.8,14.8,0,0,0,1.71,5.055A5.737,5.737,0,0,0,23.208,56a5.386,5.386,0,0,0,1.454-.2l.045-.014,1.115-.4a.564.564,0,0,1,.384,0l1.115.4.045.014a5.387,5.387,0,0,0,1.454.2,5.531,5.531,0,0,0,3.938-1.693,16.546,16.546,0,0,0,18.548-2.734A13.327,13.327,0,0,0,56.015,42,.667.667,0,0,0,55.348,41.334ZM37.866,37.993l2.823-2.742L43.519,38,40.7,40.734ZM39.4,41.334H35.588a6.629,6.629,0,0,0-.344-.8l1.665-1.617Zm5.076-2.408,2.48,2.408H41.993Zm-2.829-4.6,2.821-2.74,2.831,2.75-2.823,2.737Zm.467-6.885A9.928,9.928,0,0,1,45.6,28.628l-1.128,1.1Zm1.4,3.216-2.821,2.74-2.82-2.737,2.822-2.74Zm-6.6-.927-1.137-1.1a9.925,9.925,0,0,1,3.5-1.188Zm0,1.858,2.82,2.738-2.825,2.743L34.085,34.33Zm-.962,6.41L34.5,39.408l-.06-.072A5.7,5.7,0,0,0,30.922,37.4l2.206-2.143ZM35.5,47.869l.417-2.8a8.058,8.058,0,0,0,0-2.4H51.9a10.965,10.965,0,0,1-3.65,6.146A12.443,12.443,0,0,1,40.014,52a12.219,12.219,0,0,1-5.246-1.208,15.081,15.081,0,0,0,.737-2.925Zm14.048-6.535,1.129-1.093v1.093Zm1.129-2.949-2.427,2.351L45.434,38l2.823-2.737,2.425,2.355Zm-.149-2.772-1.319-1.281.747-.724A9.909,9.909,0,0,1,50.533,35.613Zm-1.186-3.267L48.257,33.4l-2.832-2.75,1.31-1.272a10.076,10.076,0,0,1,2.611,2.966Zm.248-7.552a13.031,13.031,0,0,0-2.273,3.361,11.346,11.346,0,0,0-1.9-1.115c.008-.1.021-.208.037-.312a7.464,7.464,0,0,1,4.137-1.934Zm-2.668-3.333a10.648,10.648,0,0,0-2.789,5.079,11.246,11.246,0,0,0-2.415-.492c-.078-.243-.178-.517-.305-.813a7.087,7.087,0,0,1,5.509-3.774Zm-6.246-4.027c1.652,1.076,1.94,3.545,1.99,4.325a8.1,8.1,0,0,0-1.991,2.1,8.246,8.246,0,0,0-1.052-1.3,8.1,8.1,0,0,0-.936-.805C38.742,20.975,39.03,18.51,40.681,17.434Zm-6.245,4.029a7.1,7.1,0,0,1,5.86,4.545,11.275,11.275,0,0,0-3.072.533q-.031-.2-.077-.4l.024-.022-.037-.039A11.265,11.265,0,0,0,34.436,21.463Zm-2.669,3.332A7.451,7.451,0,0,1,35.9,26.73c.016.1.029.207.037.31a11.346,11.346,0,0,0-1.9,1.115,13.026,13.026,0,0,0-2.273-3.361Zm2.869,4.579,1.32,1.281L33.127,33.4l-1.1-1.069a10.075,10.075,0,0,1,2.612-2.96Zm-3.228,4.219.762.739-1.344,1.306a9.916,9.916,0,0,1,.582-2.044Zm1.223,18.681a4.426,4.426,0,0,1-3.822,2.394,4.011,4.011,0,0,1-1.061-.144l-1.092-.391a1.908,1.908,0,0,0-1.283,0l-1.093.391a4.3,4.3,0,0,1-4.883-2.25,13.469,13.469,0,0,1-1.555-4.6l-.417-2.8A5.8,5.8,0,0,1,18.6,40.206a4.438,4.438,0,0,1,3.418-1.539,5.3,5.3,0,0,1,2.088.658,3.189,3.189,0,0,0,1.313.584c-.033.531-.051,1-.061,1.354a1.988,1.988,0,0,1-.882-.409l.007.007a.667.667,0,1,0-.942.943,3.544,3.544,0,0,0,2.471.861,3.541,3.541,0,0,0,2.471-.862.667.667,0,0,0-.943-.943,2.013,2.013,0,0,1-.85.395c.012-.4.033-.874.066-1.381a3.2,3.2,0,0,0,1.16-.551,5.3,5.3,0,0,1,2.088-.658,4.438,4.438,0,0,1,3.419,1.538A5.8,5.8,0,0,1,34.6,44.874l-.417,2.8A13.47,13.47,0,0,1,32.631,52.274Zm17.777-1.683a15.206,15.206,0,0,1-16.8,2.647c.065-.1.127-.207.187-.314q.246-.441.461-.9a13.553,13.553,0,0,0,5.758,1.308,13.775,13.775,0,0,0,9.116-3.523,12.223,12.223,0,0,0,4.116-7.144h1.41A12.311,12.311,0,0,1,50.408,50.591Z" transform="translate(0)"/><circle class="b" cx="0.667" cy="0.667" r="0.667" transform="translate(48.015 44.001)"/><circle class="b" cx="0.667" cy="0.667" r="0.667" transform="translate(44.681 47.335)"/><circle class="b" cx="0.667" cy="0.667" r="0.667" transform="translate(41.348 45.335)"/><circle class="b" cx="0.667" cy="0.667" r="0.667" transform="translate(37.348 45.335)"/><circle class="b" cx="0.667" cy="0.667" r="0.667" transform="translate(39.348 49.335)"/></g></svg>