<svg xmlns="http://www.w3.org/2000/svg" width="63.313" height="31.979" viewBox="0 0 63.313 31.979">
  <g id="Group_690" data-name="Group 690" transform="translate(-253.787 -213.208)">
    <path id="Path_484" data-name="Path 484" d="M550.279,359.776a1.057,1.057,0,0,0-.627.55.79.79,0,0,0,.975,1.134,1.057,1.057,0,0,0,.627-.55A.79.79,0,0,0,550.279,359.776Z" transform="translate(-239.755 -118.773)" fill="#ee5b4b"/>
    <path id="Path_485" data-name="Path 485" d="M255.386,349.954H257.5a4.086,4.086,0,0,1,1.429.213,2.515,2.515,0,0,1,.9.553,2.357,2.357,0,0,1,.646,1.744,3.275,3.275,0,0,1-.247,1.267,3.313,3.313,0,0,1-.731,1.08,3.52,3.52,0,0,1-1.31.817,5.311,5.311,0,0,1-1.812.281h-2.586Zm1.208,4.219a2.535,2.535,0,0,0,.829-.128,1.544,1.544,0,0,0,.6-.357,1.475,1.475,0,0,0,.306-.464,1.379,1.379,0,0,0,.119-.549,1.127,1.127,0,0,0-.064-.408.822.822,0,0,0-.183-.281.942.942,0,0,0-.374-.221,1.893,1.893,0,0,0-.587-.076h-.332l-.663,2.484Z" transform="translate(0 -110.849)" fill="#552b25"/>
    <path id="Path_486" data-name="Path 486" d="M294.208,349.882h2.041l.077,2.858,1.727-2.875h1.718l.2,2.875,1.607-2.858h2.093l-3.555,6h-1.735l-.255-2.96-1.837,2.96h-1.735Z" transform="translate(-32.766 -110.777)" fill="#552b25"/>
    <path id="Path_487" data-name="Path 487" d="M339.462,349.954h1.99l-1.6,5.954h-1.99Z" transform="translate(-68.153 -110.849)" fill="#552b25"/>
    <path id="Path_488" data-name="Path 488" d="M358.546,355.49a3.905,3.905,0,0,1-1.085-.153,2.792,2.792,0,0,1-.944-.472,2.34,2.34,0,0,1-.663-.821,2.674,2.674,0,0,1-.251-1.208,3.468,3.468,0,0,1,.276-1.378,3.376,3.376,0,0,1,.787-1.131,3.712,3.712,0,0,1,1.238-.765,4.494,4.494,0,0,1,1.629-.281,3.744,3.744,0,0,1,.8.085,4.107,4.107,0,0,1,.71.221,2.972,2.972,0,0,1,.574.315,2.064,2.064,0,0,1,.4.366l-1.242,1.276a2.022,2.022,0,0,0-.617-.387,1.98,1.98,0,0,0-.761-.149,2.014,2.014,0,0,0-.761.136,1.65,1.65,0,0,0-.565.37,1.6,1.6,0,0,0-.353.553,1.854,1.854,0,0,0-.124.676,1.157,1.157,0,0,0,.094.485,1.032,1.032,0,0,0,.251.344,1.009,1.009,0,0,0,.37.208,1.438,1.438,0,0,0,.442.068,1.286,1.286,0,0,0,.519-.094l.2-.638h-.978l.323-1.267h2.867l-.851,3.03a4.638,4.638,0,0,1-2.288.611Z" transform="translate(-82.534 -110.303)" fill="#552b25"/>
    <path id="Path_489" data-name="Path 489" d="M465.846,349.954h2.109a4.086,4.086,0,0,1,1.429.213,2.516,2.516,0,0,1,.9.553,2.356,2.356,0,0,1,.646,1.744,3.241,3.241,0,0,1-.978,2.348,3.518,3.518,0,0,1-1.31.817,5.31,5.31,0,0,1-1.812.281h-2.586Zm1.208,4.219a2.535,2.535,0,0,0,.829-.128,1.543,1.543,0,0,0,.6-.357,1.47,1.47,0,0,0,.306-.464,1.381,1.381,0,0,0,.119-.549,1.124,1.124,0,0,0-.064-.408.82.82,0,0,0-.183-.281.939.939,0,0,0-.374-.221,1.892,1.892,0,0,0-.587-.076h-.332l-.663,2.484Z" transform="translate(-170.603 -110.849)" fill="#552b25"/>
    <path id="Path_490" data-name="Path 490" d="M504.619,355.518a3.333,3.333,0,0,1-1.2-.208,2.872,2.872,0,0,1-.936-.57,2.541,2.541,0,0,1-.608-.855,2.609,2.609,0,0,1-.217-1.063,3.366,3.366,0,0,1,.268-1.323,3.634,3.634,0,0,1,.736-1.118,3.49,3.49,0,0,1,1.11-.77,3.389,3.389,0,0,1,1.391-.285,3.33,3.33,0,0,1,1.2.208,2.882,2.882,0,0,1,.936.57,2.55,2.55,0,0,1,.608.855,2.612,2.612,0,0,1,.217,1.063,3.363,3.363,0,0,1-.268,1.323,3.633,3.633,0,0,1-.736,1.118,3.493,3.493,0,0,1-1.11.77A3.4,3.4,0,0,1,504.619,355.518Zm.136-1.752a1.14,1.14,0,0,0,.566-.14,1.464,1.464,0,0,0,.429-.362,1.653,1.653,0,0,0,.276-.5,1.7,1.7,0,0,0,.1-.561,1.319,1.319,0,0,0-.072-.442,1.073,1.073,0,0,0-.208-.357.913.913,0,0,0-.344-.238,1.238,1.238,0,0,0-.472-.085,1.139,1.139,0,0,0-.566.14,1.476,1.476,0,0,0-.43.361,1.658,1.658,0,0,0-.276.5,1.691,1.691,0,0,0-.1.561,1.319,1.319,0,0,0,.072.442,1.069,1.069,0,0,0,.209.357.918.918,0,0,0,.34.238A1.227,1.227,0,0,0,504.755,353.766Z" transform="translate(-200.929 -110.34)" fill="#552b25"/>
    <rect id="Rectangle_102" data-name="Rectangle 102" width="3.878" height="0.473" rx="0.236" transform="translate(313.223 240.665)" fill="#ee5b4b"/>
    <rect id="Rectangle_103" data-name="Rectangle 103" width="1.984" height="0.473" rx="0.236" transform="translate(312.844 243.501)" fill="#ee5b4b"/>
    <rect id="Rectangle_104" data-name="Rectangle 104" width="2.931" height="0.473" rx="0.236" transform="translate(312.844 242.083)" fill="#ee5b4b"/>
    <path id="Path_491" data-name="Path 491" d="M392.122,352.487a1.649,1.649,0,0,1,.566-.37,2.011,2.011,0,0,1,.761-.136,1.98,1.98,0,0,1,.761.149,2.02,2.02,0,0,1,.617.387l1.242-1.276c-.028-.034-.059-.068-.091-.1a7.706,7.706,0,0,1-1.087.024,7.474,7.474,0,0,1-2.779-.683c-.054.018-.11.033-.163.053a3.713,3.713,0,0,0-1.238.765,3.376,3.376,0,0,0-.787,1.131,3.469,3.469,0,0,0-.276,1.378,2.675,2.675,0,0,0,.251,1.208,2.341,2.341,0,0,0,.663.821,2.794,2.794,0,0,0,.944.472,3.9,3.9,0,0,0,1.084.153,4.636,4.636,0,0,0,2.288-.611l.851-3.03h-2.867l-.323,1.267h.978l-.2.638a1.285,1.285,0,0,1-.519.094,1.439,1.439,0,0,1-.442-.068,1.01,1.01,0,0,1-.37-.208,1.026,1.026,0,0,1-.251-.345,1.157,1.157,0,0,1-.094-.485,1.855,1.855,0,0,1,.124-.676A1.6,1.6,0,0,1,392.122,352.487Z" transform="translate(-110.13 -111.276)" fill="#552b25"/>
    <path id="Path_492" data-name="Path 492" d="M430.938,349.954l-1.548,1.99-.478-1.964a7.888,7.888,0,0,1-1.894.621l.961,3.036-.6,2.271h1.99l.544-2.024,3.385-3.93Z" transform="translate(-140.423 -110.849)" fill="#552b25"/>
    <g id="Group_124" data-name="Group 124" transform="translate(261.58 213.208)">
      <rect id="Rectangle_105" data-name="Rectangle 105" width="7.575" height="0.758" rx="0.379" transform="translate(0 22.247)" fill="#2d1a10"/>
      <rect id="Rectangle_106" data-name="Rectangle 106" width="31.816" height="0.758" rx="0.379" transform="translate(15.529 22.247)" fill="#2d1a10"/>
      <path id="Path_493" data-name="Path 493" d="M300.906,235.627c1.769-.486,3.833-.042,5.7-.179,1-.066,0-3.238,3.9-3.89.434-.079.457-.294.489-.6a19.241,19.241,0,0,1,1.384-5.542,5.174,5.174,0,0,0,.58-2.7,19.72,19.72,0,0,1,1.6-7.49c.436-.707,1.023-2.386,2.057-1.954,1.752,1.244,2.659,3.351,3.716,5.159a.412.412,0,0,0,.509.262,23.882,23.882,0,0,1,5.871,0,.412.412,0,0,0,.5-.264c1.039-1.8,1.953-3.828,3.644-5.118,2.739-.745,3.938,8.843,3.793,10.8a28.374,28.374,0,0,1,1.355,3.718.413.413,0,0,0,.367.367,1.467,1.467,0,0,1,1.318,1.17c.015.076.032.123.122.131,1.375.118,1.737,1.144,1.995,2.245a11.608,11.608,0,0,1,.173,3.134c-.023.566-.021.566.526.566.646.181,7.564-.521,5.919.611-6.2.031-12.4,0-18.6,0-1.053.108-.607,1.96-3.159,2.235-1.641.262-3.7-.208-4.29-1.953a.372.372,0,0,0-.427-.281c-.989.169-4.09-.343-4.569.254-.5,1.262-1.212,1.052-2.258,1.143-.393.706-1.137.77-1.777,1.027a1.549,1.549,0,0,1-1.389-.727,1.61,1.61,0,0,1-2.824-.716c-.157-.376.062-1.031-.553-.985C305.744,235.884,300.68,236.539,300.906,235.627Zm18.817-9.8a1.2,1.2,0,0,1-1.632-1.543,1.226,1.226,0,0,1,2.291.258c.386-.8,2.229-1.053,1.869-1.548a1.991,1.991,0,0,0-1.185-1.118c-.185-.065-.461-.11-.543.073-.367.618-1.218.108-1.8.329a2.448,2.448,0,0,0-2.2,1.887.421.421,0,0,1-.344.341,4.6,4.6,0,0,0-2.439,1.825,10.107,10.107,0,0,0-1.553,4.928c0,.46.715.31.993.552a4.3,4.3,0,0,1,2.3,3.3c.031.162,0,.337.26.336,1.4-.008,2.806,0,4.209,0,.4.01.072-.889.244-1.185a.429.429,0,0,0-.258-.494c-1.48-.716-1.65-2.322-2.352-3.612-.195-.189.116-.208.169-.019a1.763,1.763,0,0,0,1.617.787c1.631.071,2.281-1.8,3.862-1.881.156-.015.32-.052.273-.274-.044-.206.134-.47-.2-.6a3.411,3.411,0,0,1-2-2.282c-.927-2.547,6-2.554,5.053.008a3.439,3.439,0,0,1-2.034,2.3c-.32.123-.115.379-.165.569-.035.133,0,.242.177.256,2.1.275,3.713,3.634,5.775.9.02.433-.354.637-.475,1a3.932,3.932,0,0,1-1.986,2.9c-.424.23.021.871-.136,1.277-.136.74,2.81.164,3.416.35.342.006.441-.027.334-.419-.332-1.386-1.167-3.975.7-4.575.171-.035.245-.092.261-.291a1.648,1.648,0,0,1,2.419-1.479c1.156.581-1.09-3.93-3.228-4.212a.357.357,0,0,1-.279-.308,2.279,2.279,0,0,0-1.589-1.737,4.443,4.443,0,0,0-1.907-.188c-.123.011-.306.13-.381-.108-.117-.372-.418-.348-.687-.25a1.944,1.944,0,0,0-1.2,1.21c-.069.188-.034.281.158.344a3.34,3.34,0,0,1,1.691,1.188c.653-1.848,2.878-.955,2.331.6a1.231,1.231,0,0,1-1.884.465,6.125,6.125,0,0,0,1.358,2.159l-.1.069c-2.664-2.039-1.4-4.775-6.351-4-2.318.294-2.168,3.1-4.051,4.075l-.088-.063a5.849,5.849,0,0,0,1.391-2.118Zm-12.091,10.039c-.048.718.2,2.055,1.238,1.782a.869.869,0,0,0,.76-.867c.015-.169.092-.3.279-.311.653.095.286,1.534,1.464,1.329,1.753-.28.835-1.144,1.479-1.651.626-.047.463,1.189,1.422.562,1.6-1.287-.228-4.055-1.8-4.491A3.671,3.671,0,0,0,307.632,235.866Zm28-.409c.637-.156,3.839.369,3.747-.321-.1-1.563.489-5.093-1.887-4.958-.36.06-.462-.045-.4-.43a.941.941,0,0,0-1.837-.307c-.391.74-.973-.767-1.922-.164-.977.287-.041,1.743-.894,1.8-1.916.041-.713,3.139-.47,4.254.062.211.227.124.346.125C333.42,235.461,334.527,235.458,335.634,235.458Zm-11.778,1.175c-.147-.034-.129-.118-.128-.177.015-1.093-.127-2.177-.171-3.266-.03-.748-.02-.748-.757-.949-1.777-.556-2.1,1.839-2.01,3.081.051,3.167,5.785,3.175,6.029.255.268-1.513-.367-4.25-2.409-3.2C323.769,232.854,324.1,235.661,323.856,236.632Zm-4.33-17.672a32.83,32.83,0,0,0-2.549-3.9c-2.11-1.15-2.9,6-2.848,7.379A10.275,10.275,0,0,1,319.526,218.961Zm13.892,3.459c-.012-1.542-.66-8.258-2.82-7.4a30.265,30.265,0,0,0-2.573,3.93A10.266,10.266,0,0,1,333.419,222.42Zm-9.544-2.272a15.589,15.589,0,0,0-.327,2.814c-.013.3.271.109.413.151C324.4,223.217,323.81,220.593,323.875,220.148Zm4.945,3.793c-.422-.036-.413.642-.008.6C329.205,224.566,329.2,223.92,328.82,223.941Zm-8.98.309c-.018-.4-.658-.409-.635,0C319.2,224.634,319.8,224.628,319.839,224.25Z" transform="translate(-299.77 -213.208)" fill="#2d1a10"/>
      <path id="Path_494" data-name="Path 494" d="M408.936,317.673c.251-.98-.09-3.765.554-4.258,2.042-1.048,2.678,1.688,2.409,3.2-.244,2.92-5.977,2.912-6.029-.255-.095-1.242.234-3.637,2.01-3.081.737.2.727.2.757.949.044,1.089.186,2.174.171,3.266C408.807,317.554,408.789,317.639,408.936,317.673Z" transform="translate(-384.85 -294.248)" fill="#ee5b4b"/>
      <path id="Path_495" data-name="Path 495" d="M400.3,279.784l.1-.013-.039.08Z" transform="translate(-380.344 -267.165)" fill="#f9f9f8"/>
      <path id="Path_496" data-name="Path 496" d="M448.959,290.519l.343.319a.659.659,0,0,1-.448-.249Z" transform="translate(-419.705 -275.878)" fill="#0b0b0b"/>
      <path id="Path_497" data-name="Path 497" d="M392.894,291.075l.107-.12.088.063-.142.125Z" transform="translate(-374.343 -276.231)" fill="#0b0b0b"/>
      <path id="Path_498" data-name="Path 498" d="M392.7,291.658c-.08.074-.176.007-.053-.068Z" transform="translate(-374.094 -276.746)" fill="#0b0b0b"/>
      <g id="Group_123" data-name="Group 123" transform="translate(32.03 15.954)" opacity="0.47">
        <g id="Group_122" data-name="Group 122">
          <path id="Path_499" data-name="Path 499" d="M475.188,310.679c-1.9.148-1.4-1.854-.522-2.672C476.612,306.442,479.7,310.647,475.188,310.679Z" transform="translate(-472.025 -305.725)" fill="#552b25"/>
          <path id="Path_500" data-name="Path 500" d="M492.763,305.378c-.83.045-.789-1.257-.016-1.265A.633.633,0,0,1,492.763,305.378Z" transform="translate(-486.835 -302.852)" fill="#552b25"/>
          <path id="Path_501" data-name="Path 501" d="M472.614,300.312a.617.617,0,1,1-1.234-.016C471.366,299.51,472.668,299.459,472.614,300.312Z" transform="translate(-469.995 -299.266)" fill="#552b25"/>
          <path id="Path_502" data-name="Path 502" d="M484.319,298.714c-.811.014-.774-1.27.007-1.262A.631.631,0,0,1,484.319,298.714Z" transform="translate(-480.002 -297.452)" fill="#552b25"/>
          <path id="Path_503" data-name="Path 503" d="M464.069,310.209a.617.617,0,1,1,1.233.006C465.328,311,464.018,311.032,464.069,310.209Z" transform="translate(-464.067 -307.291)" fill="#552b25"/>
        </g>
      </g>
    </g>
    <path id="Path_504" data-name="Path 504" d="M343.243,317.651c-.959.627-.8-.609-1.422-.562-.644.507.274,1.37-1.48,1.651-1.178.206-.811-1.234-1.464-1.329-.187.011-.264.142-.279.311a.869.869,0,0,1-.76.867c-1.038.272-1.286-1.064-1.238-1.782a3.671,3.671,0,0,1,4.842-3.646C343.015,313.6,344.848,316.364,343.243,317.651Z" transform="translate(-67.124 -80.879)" fill="#fff"/>
    <path id="Path_505" data-name="Path 505" d="M543.085,353.841a.236.236,0,1,1,0-.473h1.095c0-.008.008-.015.011-.023a3.365,3.365,0,0,0,.242-.922h-.59a.236.236,0,1,1,0-.473h.613a2.609,2.609,0,0,0-.2-.945h-.8a.236.236,0,1,1,0-.473H544a2.568,2.568,0,0,0-.369-.428,2.88,2.88,0,0,0-.936-.57,3.33,3.33,0,0,0-1.2-.208,3.389,3.389,0,0,0-1.391.285,3.488,3.488,0,0,0-1.11.77,3.633,3.633,0,0,0-.736,1.118,3.364,3.364,0,0,0-.268,1.323,2.615,2.615,0,0,0,.217,1.063,2.547,2.547,0,0,0,.608.855,2.87,2.87,0,0,0,.936.57,3.332,3.332,0,0,0,1.2.208,3.4,3.4,0,0,0,1.391-.285,3.491,3.491,0,0,0,1.11-.77,3.583,3.583,0,0,0,.478-.622Zm-.355-1.655a1.875,1.875,0,0,1-.439.954l0,0h0c-.293.33-1.059,1.2-1.476,1.672a.125.125,0,0,1-.193.009s-.008-.005-.01-.009l-.987-1.641a1.456,1.456,0,0,1-.2-.873,2.019,2.019,0,0,1,1.847-1.763A1.4,1.4,0,0,1,542.73,352.185Z" transform="translate(-230.383 -110.34)" fill="#ee5b4b"/>
  </g>
</svg>
