<svg xmlns="http://www.w3.org/2000/svg" width="403.66" height="275.305" viewBox="0 0 403.66 275.305"><defs><style>.a,.l{fill:#fff;}.b{fill:#281b46;}.c{fill:#ffbea0;}.d{fill:#40355b;}.e,.f{fill:#ececec;}.e{opacity:0.53;}.g{fill:#691e46;opacity:0.2;mix-blend-mode:multiply;isolation:isolate;}.h{fill:#7ec589;}.i{fill:#fca592;}.j{fill:#549276;}.k{fill:#d5d5d5;}.l{opacity:0.65;}</style></defs><path class="a" d="M227.044,0l-67,275.3H0V0Z"/><g transform="translate(188.206 82.877)"><path class="b" d="M422.865,223.161c-7.358,3.643-2.106,19.224-2.106,19.224l14.872-4.474S431.069,219.1,422.865,223.161Z" transform="translate(-376.475 -182.905)"/><path class="c" d="M458.129,254.942c-.765.633-2-.633-2.637-1.971-1.008,1.624-4.042,1.778-4.042,1.778l-2.637,3.986-5.275,7.973a8.649,8.649,0,0,1-5.539-5.98,62.3,62.3,0,0,1,7.207-8.353c2.77-2.626,5.038-4.014,6.437-4.108,0,0,3.816-.545,4.482.44S458.889,254.308,458.129,254.942Z" transform="translate(-385.038 -194.379)"/><path class="d" d="M472.1,266.049a.14.14,0,0,1,0,.083c-.336,1.107-5.71,6.354-5.71,6.354L463.121,272l-3.942-.584.529-1.575.837-2.323s4.366-4.344,4.983-4.548c.98-.325,5.682,1.652,5.682,1.652C471.314,264.827,472.063,265.675,472.1,266.049Z" transform="translate(-394.556 -201.038)"/><path class="b" d="M472.631,267.229a.139.139,0,0,1,0,.083c-.336,1.107-5.71,6.354-5.71,6.354l-3.265-.485-3.287-1.316,6.382-6.3Z" transform="translate(-395.091 -202.217)"/><ellipse class="e" cx="44.944" cy="4.298" rx="44.944" ry="4.298" transform="translate(0 161.021)"/><path class="b" d="M416.072,304.66l-.325,8.782L413.8,366.433l-.165,4.5-.16,4.355h-14.5l.182-4.355.193-4.746,2.026-49.28h-2.307l-2.142,49.235-.209,4.79-.187,4.355h-14.5l.088-4.355.094-5.038,1.123-57.1.138-7.064Z" transform="translate(-359.89 -218.472)"/><path class="f" d="M397.005,418.519l-.209,4.79H382.2l.094-5.038Z" transform="translate(-359.962 -270.844)"/><path class="f" d="M427.78,419.043l-.165,4.5H413.139l.193-4.746Z" transform="translate(-373.866 -271.082)"/><path class="g" d="M417.137,304.66l-.325,8.782-6.96,2.346-2.94,59.5h-6.866l2.4-58.381H400.14c-9.1-2.45-13.6-5.836-15.731-8.116l.138-7.064Z" transform="translate(-360.955 -218.472)"/><path class="h" d="M397.454,211.59s-8.316,3.321-12.71,14.843c-3.78,9.912-3.564,36.864-3.564,36.864s18.417,6.4,35.735,2.847c2.366-22.734,1.5-40.443-7.5-50.351C400.792,216.534,397.454,211.59,397.454,211.59Z" transform="translate(-359.503 -177.963)"/><path class="b" d="M409.109,173.117s-5.279-2.6-2.282-7.139c-1.794-2.232-.712-6.667,3.5-7.274-.781-4.744,4.625-7.568,7.839-5.281,1.674-5.4,12.1-2.583,11.176,2.884,5.586-.471,7.868,4.525,6.5,7.864,3.354,2.2,1.325,11.3-6.331,8.55C424.65,175.286,409.109,173.117,409.109,173.117Z" transform="translate(-370.616 -150.518)"/><path class="c" d="M433.348,175.818s-1.074,10.44-2.593,14.955-7.786,2.962-7.786,2.962l-.424,2.891-.127.881a21.792,21.792,0,0,1-1.2,7.933c-6.974-2.69-10.756-12.134-10.756-12.134l2.07-9.531s-3.953-1.354-1.74-6.024c1.767.92,3.953-1.013,3.953-1.013,2.164.925,5.066.457,6.172-3.695,3.992,1.723,8.369-2.142,8.369-2.142Z" transform="translate(-372.508 -159.678)"/><path class="b" d="M435.017,185.289a.858.858,0,1,1-.7-.988A.858.858,0,0,1,435.017,185.289Z" transform="translate(-382.932 -165.694)"/><path class="b" d="M447.4,187.853a.858.858,0,1,1-.7-.989A.858.858,0,0,1,447.4,187.853Z" transform="translate(-388.496 -166.846)"/><path class="b" d="M430.288,179.1c.22.883,5.437.359,5.128-.528S429.956,177.761,430.288,179.1Z" transform="translate(-381.566 -162.861)"/><path class="b" d="M443.794,181.98c-.037.9,4.914,1.785,4.869.861S443.849,180.622,443.794,181.98Z" transform="translate(-387.642 -164.393)"/><path class="b" d="M441.787,189.737a.276.276,0,0,1-.275-.262l-.161-3.249a.275.275,0,0,1,.261-.289.271.271,0,0,1,.289.262l.161,3.249a.275.275,0,0,1-.261.289Z" transform="translate(-386.545 -166.435)"/><path class="f" d="M419.442,186.473l-2.735,2.967s-.483,6.041,7.6,8.185,10.514-.659,10.514-.659l1.042-6.187s-2.384-2.182-4.652-2.488C429.311,188.036,419.442,186.473,419.442,186.473Z" transform="translate(-375.467 -166.676)"/><path class="f" d="M419.833,185.188a.266.266,0,0,1-.108-.057l-5.462-4.668a.275.275,0,0,1,.358-.418l5.461,4.668a.275.275,0,0,1-.249.475Z" transform="translate(-374.328 -163.758)"/><path class="c" d="M436.913,271.41a4.179,4.179,0,0,1-2.1,1.811c-1.344.209-8.265.011-8.265.011l-4.262-.022-23.2-.1-3.447-16.067,4.372-1.261,8.21-2.368,1.255,8.793,13.683,2.384,3.386.589,5.446-1.938-.837,2.324,6.679,2.643C438.2,268.955,437.678,270.3,436.913,271.41Z" transform="translate(-366.002 -196.757)"/><path class="i" d="M436.913,273.343a4.179,4.179,0,0,1-2.1,1.811c-1.344.209-8.265.011-8.265.011l-4.262-.022-23.2-.1-3.447-16.067,4.372-1.261,3.6,13.308Z" transform="translate(-366.002 -198.69)"/><path class="b" d="M396.67,224.54c-7.357,3.643-3.165,21.167-3.165,21.167l14.873-3.85S404.875,220.478,396.67,224.54Z" transform="translate(-364.509 -183.552)"/><g transform="translate(21.407 156.818)"><path class="j" d="M380.692,443.786s23.263.457,23.355,0c.031-.154-8.114-5.106-8.114-5.106v-3.353h-14.5Z" transform="translate(-380.692 -435.327)"/><ellipse class="a" cx="2.4" cy="0.617" rx="2.4" ry="0.617" transform="translate(9.445 1.547)"/><path class="a" d="M404.645,443.689c0,.341-1.074.617-2.4.617s-2.4-.276-2.4-.617,1.074-.617,2.4-.617S404.645,443.348,404.645,443.689Z" transform="translate(-389.3 -438.808)"/></g><g transform="translate(38.35 156.818)"><path class="j" d="M411.463,443.786s23.263.457,23.355,0c.031-.154-8.114-5.106-8.114-5.106l0-3.353H412.2Z" transform="translate(-411.463 -435.327)"/><ellipse class="a" cx="2.4" cy="0.617" rx="2.4" ry="0.617" transform="translate(9.445 1.547)"/><path class="a" d="M435.417,443.689c0,.341-1.074.617-2.4.617s-2.4-.276-2.4-.617,1.074-.617,2.4-.617S435.417,443.348,435.417,443.689Z" transform="translate(-420.071 -438.808)"/></g><path class="i" d="M428.08,209.58l-.424,2.891c-2.871-.549-5.223-2.194-6.167-6.31C422.766,208.385,428.08,209.58,428.08,209.58Z" transform="translate(-377.619 -175.524)"/><path class="b" d="M406.839,166.4a.275.275,0,0,1-.159-.5c2.832-2,4.91-.932,5-.886a.275.275,0,0,1-.258.487c-.079-.041-1.883-.94-4.422.849A.272.272,0,0,1,406.839,166.4Z" transform="translate(-370.911 -156.885)"/><path class="b" d="M447.029,159.317a.276.276,0,0,1-.173-.491,4.876,4.876,0,0,0,1.624-3.681.275.275,0,0,1,.268-.282h.007a.276.276,0,0,1,.275.268,5.349,5.349,0,0,1-1.831,4.126A.275.275,0,0,1,447.029,159.317Z" transform="translate(-388.972 -152.471)"/><path class="a" d="M433.043,247.463l.322,3.469H438.5v-3.653Z" transform="translate(-382.811 -194.002)"/><path class="f" d="M463.977,254.942c-.765.633-2-.633-2.637-1.971-1.008,1.624-4.042,1.778-4.042,1.778l-2.637,3.986c-3.568-.986-3.783-4.427-3.607-6.36,2.77-2.626,5.038-4.014,6.437-4.108,0,0,3.816-.545,4.482.44S464.737,254.308,463.977,254.942Z" transform="translate(-390.886 -194.379)"/><path class="f" d="M456.555,281.244c-1.343.209-8.265.011-8.265.011l-4.262-.022.875-8.623,3.386.589,5.445-1.938-.837,2.324,6.679,2.643C460.255,277.615,457.9,281.034,456.555,281.244Z" transform="translate(-387.748 -204.779)"/><path class="a" d="M430.273,192.338s6.536,0,10.207,2.164A23.22,23.22,0,0,1,430.273,192.338Z" transform="translate(-381.566 -169.312)"/><path class="a" d="M426.69,194.3s5.925,5.275,11.8,3.312C434.9,199.85,429.636,198.687,426.69,194.3Z" transform="translate(-379.956 -170.195)"/></g><g transform="translate(260.643 42.523)"><path class="f" d="M616.389,355.2H473.372c2.614-43.324,33.627-77.524,71.508-77.524S613.775,311.874,616.389,355.2Z" transform="translate(-473.372 -167.307)"/><rect class="h" width="98.319" height="187.89" transform="translate(22.349)"/><rect class="b" width="84.013" height="182.335" transform="translate(29.502 5.556)"/><rect class="j" width="78.224" height="179.191" transform="translate(32.398 8.701)"/><circle class="f" cx="6.787" cy="6.787" r="6.787" transform="translate(64.721 93.02)"/><path class="a" d="M603.429,150.719a1.013,1.013,0,1,1-1.013-1.013A1.013,1.013,0,0,1,603.429,150.719Z" transform="translate(-530.908 -109.8)"/><rect class="f" width="11.003" height="11.003" transform="translate(6.204 75.731)"/><rect class="a" width="5.405" height="5.857" transform="translate(9.068 78.004)"/><rect class="h" width="5.747" height="11.378" rx="2.873" transform="translate(38.218 104.539)"/><rect class="b" width="0.852" height="5.682" rx="0.426" transform="translate(40.665 107.526)"/><path class="b" d="M548.227,272.8a1.232,1.232,0,1,0-1.232,1.232A1.232,1.232,0,0,0,548.227,272.8Z" transform="translate(-505.904 -164.563)"/><g transform="translate(25.796 143.689)"><ellipse class="e" cx="44.944" cy="4.298" rx="44.944" ry="4.298" transform="translate(0 57.685)"/><rect class="f" width="45.202" height="61.334" transform="translate(22.343)"/><rect class="k" width="18.664" height="61.334" transform="translate(50.39)"/><rect class="a" width="7.343" height="21.667" transform="translate(32.165)"/><rect class="a" width="3.58" height="21.667" transform="translate(57.932)"/></g></g><g transform="translate(9.645 46.849)"><ellipse class="g" cx="64.306" cy="4.394" rx="64.306" ry="4.394" transform="translate(26.57 148.555)"/><g transform="translate(0 78.376)"><path class="j" d="M204.233,267.869v25.137l-62.505-.581-1.591-.018L81.1,291.855V227.43l61.337.922,1.867.023,13.523.206a11.606,11.606,0,0,1,8.89,3.864l17.639,21.121,12.812,5.038C201.485,260.3,204.233,263.905,204.233,267.869Z" transform="translate(-46.091 -227.43)"/><path class="b" d="M204.233,331.64v8.2L81.1,338.686V331.64Z" transform="translate(-46.092 -274.261)"/><g transform="translate(45.225 54.389)"><circle class="b" cx="10.227" cy="10.227" r="10.227"/><circle class="f" cx="5.027" cy="5.027" r="5.027" transform="translate(5.2 5.2)"/><path class="a" d="M118.647,342.916a2.287,2.287,0,1,0-2.287,2.287A2.287,2.287,0,0,0,118.647,342.916Z" transform="translate(-106.133 -332.689)"/></g><g transform="translate(122.37 54.389)"><circle class="b" cx="10.227" cy="10.227" r="10.227"/><circle class="f" cx="5.027" cy="5.027" r="5.027" transform="translate(5.2 5.2)"/><path class="a" d="M258.757,342.916a2.287,2.287,0,1,0-2.287,2.287A2.287,2.287,0,0,0,258.757,342.916Z" transform="translate(-246.243 -332.689)"/></g><rect class="a" width="4.084" height="4.084" rx="2.042" transform="translate(33.634 49.489)"/><rect class="a" width="5.576" height="4.084" rx="2.042" transform="translate(153.893 51.179)"/><rect class="b" width="4.084" height="4.084" rx="2.042" transform="translate(33.634 4.537)"/><rect class="b" width="4.084" height="4.084" rx="2.042" transform="translate(33.634 43.329)"/><path class="l" d="M233.455,259.723H200.849V237.657h12.689a4.162,4.162,0,0,1,2.144.992,26.362,26.362,0,0,1,3.282,2.977c1.533,1.574,3.195,3.482,4.827,5.467.634.757,1.263,1.527,1.867,2.3.282.352.558.7.828,1.045C230.331,255.313,233.455,259.723,233.455,259.723Z" transform="translate(-99.905 -232.026)"/><rect class="b" width="4.686" height="2.343" rx="1.172" transform="translate(102.7 34.923)"/><rect class="h" width="5.036" height="1.39" transform="translate(40.344 23.009)"/><rect class="h" width="5.036" height="1.39" transform="translate(37.723 24.952)"/><rect class="h" width="5.036" height="1.39" transform="translate(38.583 26.895)"/><path class="a" d="M292.641,308.165a2.042,2.042,0,1,1-2.042-2.042A2.042,2.042,0,0,1,292.641,308.165Z" transform="translate(-139.32 -262.794)"/><path class="b" d="M192.488,229.127l-2.578,64.05-1.591-.018,2.3-64.055Z" transform="translate(-94.274 -228.182)"/><path class="a" d="M215.681,238.649,203.4,259.723h-2.548v-1.615l11.943-20.451h.746A4.162,4.162,0,0,1,215.681,238.649Z" transform="translate(-99.905 -232.026)"/><path class="a" d="M230.016,250.332l-7.78,12.63H214.7l10.487-18.1C226.722,246.439,228.384,248.347,230.016,250.332Z" transform="translate(-106.131 -235.265)"/><path class="a" d="M241.874,260.009,235.55,269.3h-.458l5.954-10.334C241.328,259.316,241.6,259.663,241.874,260.009Z" transform="translate(-115.294 -241.601)"/><rect class="h" width="13.654" height="2.348" rx="1.174" transform="translate(15.635 40.225)"/><rect class="h" width="13.654" height="2.348" rx="1.174" transform="translate(15.635 20.042)"/><rect class="h" width="25.398" height="2.348" rx="1.174" transform="translate(2.329 26.895)"/><rect class="h" width="19.526" height="2.348" rx="1.174" transform="translate(0 33.748)"/></g><path class="a" d="M256.623,159.832H176.235s19.727-6.276,30.8-3.138c11.073-12.029,17.759-.879,17.759-.879S251.926,139.843,256.623,159.832Z" transform="translate(-88.844 -114.156)"/><path class="a" d="M132.013,100.535H28.693s15.158-10.253,24.85-5.127c9.692-14.648,28.525-12.393,35.588-1.435,3.4-4.512,9.992-.03,9.992-.03S132.013,77.1,132.013,100.535Z" transform="translate(-22.54 -85.086)"/></g></svg>