<svg xmlns="http://www.w3.org/2000/svg" width="36.378" height="36" viewBox="0 0 36.378 36"><defs><style>.a{opacity:0.56;}.b{fill:#014141;}</style></defs><g class="a" transform="translate(0 -2.657)"><g transform="translate(0 2.657)"><g transform="translate(0 0)"><path class="b" d="M34.437,10.768H29.391a4.99,4.99,0,0,0,1.328-3.393s0-.2,0-.257a4.567,4.567,0,0,0-2.355-3.851,4.67,4.67,0,0,0-4.616,0l-2.295,1.3a8.007,8.007,0,0,0-3.262,3.471,8.007,8.007,0,0,0-3.262-3.471l-2.295-1.3a4.67,4.67,0,0,0-4.616,0A4.567,4.567,0,0,0,5.662,7.118c0,.057,0,.257,0,.257a4.99,4.99,0,0,0,1.328,3.393H1.941A1.943,1.943,0,0,0,0,12.709v4.606a1.943,1.943,0,0,0,1.941,1.941h.889V36.717A1.943,1.943,0,0,0,4.77,38.657H31.607a1.943,1.943,0,0,0,1.941-1.941V19.256h.889a1.943,1.943,0,0,0,1.941-1.941V12.709A1.943,1.943,0,0,0,34.437,10.768Zm-12.192-4.8,2.295-1.3a3.065,3.065,0,0,1,3.03,0,2.962,2.962,0,0,1,1.53,2.5c0,.039,0,.2,0,.2a3.4,3.4,0,0,1-3.393,3.393H19.043A6.4,6.4,0,0,1,22.245,5.971ZM7.277,7.173a2.962,2.962,0,0,1,1.53-2.5,3.065,3.065,0,0,1,3.03,0l2.295,1.3a6.4,6.4,0,0,1,3.2,4.8H10.669A3.4,3.4,0,0,1,7.275,7.375S7.276,7.211,7.277,7.173Zm7.274,14.543H11.223a.808.808,0,1,0,0,1.617h3.328V37.041H4.77a.324.324,0,0,1-.324-.324V19.256h10.1v2.459Zm0-4.076H1.941a.324.324,0,0,1-.324-.324V12.709a.324.324,0,0,1,.324-.324h12.61Zm5.658,19.4H16.168V12.385H20.21Zm11.722-.324a.324.324,0,0,1-.324.324H21.826V23.332h3.08a.808.808,0,0,0,0-1.617h-3.08V19.256H31.931V36.717Zm2.829-19.4a.324.324,0,0,1-.324.324H21.826V12.385h12.61a.324.324,0,0,1,.324.324v4.607Z" transform="translate(0 -2.657)"/><path class="b" d="M394.028,272.5h.081a.808.808,0,1,0,0-1.617h-.081a.808.808,0,0,0,0,1.617Z" transform="translate(-365.282 -251.829)"/><path class="b" d="M92.208,272.5h.081a.808.808,0,1,0,0-1.617h-.081a.808.808,0,0,0,0,1.617Z" transform="translate(-84.906 -251.829)"/></g></g></g></svg>