<svg xmlns="http://www.w3.org/2000/svg" width="25.333" height="38" viewBox="0 0 25.333 38"><defs><style>.a{opacity:0.56;}.b{fill:#014141;}</style></defs><g class="a" transform="translate(-16 -8)"><path class="b" d="M36.667,32.333V26.792A.791.791,0,0,0,35.875,26H30.333A6.341,6.341,0,0,0,24,32.333v5.542a.785.785,0,0,0,.061.3.794.794,0,0,0,.428.428.785.785,0,0,0,.3.061h5.542A6.341,6.341,0,0,0,36.667,32.333Zm-6.333-4.75h4.75v4.75a4.755,4.755,0,0,1-4.75,4.75H26.7l3.167-3.167h2.839a.792.792,0,1,0,0-1.583H31.453l1.815-1.815A.792.792,0,0,0,32.149,29.4l-1.815,1.815V29.958a.792.792,0,0,0-1.583,0V32.8l-3.167,3.167V32.333a4.755,4.755,0,0,1,4.75-4.75Z" transform="translate(-1.667 -3.75)"/><path class="b" d="M41.1,16.149l-3.167-3.167a.793.793,0,0,0-.56-.232H35V8.792A.791.791,0,0,0,34.208,8H23.125a.792.792,0,0,0-.792.792V12.75H19.958a.793.793,0,0,0-.56.232l-3.167,3.167a.79.79,0,0,0-.232.56v28.5a.791.791,0,0,0,.792.792H29.458a.792.792,0,1,0,0-1.583H17.583v-4.75h5.542a.792.792,0,1,0,0-1.583H17.583V17.036l2.7-2.7h2.047v3.958a.792.792,0,0,0,.792.792H34.208A.791.791,0,0,0,35,18.292V14.333h2.047l2.7,2.7V38.083H27.875a.792.792,0,1,0,0,1.583H39.75v4.75H34.208a.792.792,0,0,0,0,1.583h6.333a.791.791,0,0,0,.792-.792v-28.5A.793.793,0,0,0,41.1,16.149ZM33.417,17.5h-9.5V9.583h9.5Z"/><circle class="b" cx="1" cy="1" r="1" transform="translate(31 44)"/><ellipse class="b" cx="0.5" cy="1" rx="0.5" ry="1" transform="translate(25 38)"/></g></svg>