<svg xmlns="http://www.w3.org/2000/svg" width="25.137" height="29.328" viewBox="0 0 25.137 29.328"><defs><style>.a{fill:#fff;}</style></defs><path class="a" d="M59.71,18.712v5.77A3.118,3.118,0,0,1,56.6,27.6H55a4.4,4.4,0,0,0,.875-3.171l-.7-6.056a9.211,9.211,0,0,0-.977-3.8,10.276,10.276,0,0,0-2.719-3.51l-.006,0c-1.62-1.307-1.66-3.967-1.661-6.358,0-.062.008-2.191.008-2.191A2.508,2.508,0,0,0,47.315,0h-3.6a2.711,2.711,0,0,0-2.169,1.091l-.47.634a.972.972,0,0,1-.778.391h-.87a2.23,2.23,0,0,0-2.216,2.478l.15,1.335a2.538,2.538,0,0,0,1.433,2l1.441.677a87.671,87.671,0,0,0-1.517,9.127v6.454a2.572,2.572,0,0,0,.158,5.139H56.6a4.852,4.852,0,0,0,4.846-4.846v-5.77H59.71ZM47.315,1.732a.774.774,0,0,1,.774.774l-.008,2.007v.1a.773.773,0,0,1-1.539-.1V1.732ZM38.877,27.6a.84.84,0,1,1,0-1.681h5.3V23.462a2.337,2.337,0,0,1,2.334-2.334h.866V19.4h-.866a4.042,4.042,0,0,0-2.334.74V18.23H42.445v5.954H40.45V17.735A90.678,90.678,0,0,1,42.069,8.29l.139-.669L39.532,6.364a.8.8,0,0,1-.449-.627L38.933,4.4a.5.5,0,0,1,.5-.554h.87a2.711,2.711,0,0,0,2.169-1.091l.47-.634a.972.972,0,0,1,.778-.391h1.1V4.508a2.5,2.5,0,0,0,3.322,2.368c.13,2.078.6,4.187,2.257,5.528a8.636,8.636,0,0,1,3.056,6.017v.05l.707,6.153A2.668,2.668,0,0,1,51.5,27.6Z" transform="translate(-36.305)"/></svg>