<svg xmlns="http://www.w3.org/2000/svg" width="179.471" height="95.833" viewBox="0 0 179.471 95.833"><defs><style>.a{fill:#2d1a10;}.b{fill:#ee5b4b;}.c{fill:#f9f9f8;}.d{fill:#0b0b0b;}.e{opacity:0.47;}.f{fill:#552b25;}</style></defs><rect class="a" width="28.715" height="2.872" rx="1.436" transform="translate(0 84.33)"/><rect class="a" width="120.604" height="2.872" rx="1.436" transform="translate(58.866 84.33)"/><path class="a" d="M300.927,298.193c6.7-1.842,14.531-.161,21.595-.677,3.795-.251.015-12.276,14.779-14.747,1.643-.3,1.734-1.116,1.854-2.26A72.937,72.937,0,0,1,344.4,259.5c2.027-3.143,2.02-6.667,2.2-10.228.493-9.776,1.86-19.4,6.067-28.392,1.652-2.68,3.879-9.045,7.8-7.409,6.642,4.715,10.081,12.7,14.086,19.557a1.562,1.562,0,0,0,1.928.994,90.529,90.529,0,0,1,22.255-.012,1.56,1.56,0,0,0,1.914-1c3.938-6.815,7.4-14.511,13.812-19.4,10.384-2.825,14.926,33.521,14.379,40.927,1.624,4.694,4.157,9.126,5.138,14.095a1.567,1.567,0,0,0,1.389,1.393c2.51.494,4.449,1.711,5,4.437.058.289.12.467.464.5,5.212.447,6.584,4.337,7.561,8.509a43.986,43.986,0,0,1,.654,11.879c-.085,2.146-.08,2.146,1.994,2.145,2.448.688,28.674-1.976,22.439,2.317-23.5.118-47.007.014-70.508.018-3.993.411-2.3,7.429-11.973,8.473-6.22.992-14.014-.79-16.261-7.4a1.41,1.41,0,0,0-1.618-1.066c-3.75.64-15.5-1.3-17.321.964-1.9,4.783-4.593,3.987-8.559,4.334-1.49,2.677-4.309,2.92-6.734,3.892a5.872,5.872,0,0,1-5.266-2.757c-3.838,3.687-9.35,2.609-10.707-2.715-.6-1.427.234-3.909-2.1-3.735C319.265,299.166,300.069,301.648,300.927,298.193Zm71.328-37.15c-3.673,1.943-8.049-2.113-6.187-5.849,1.683-4.063,7.651-3.115,8.686.977,1.462-3.05,8.449-3.99,7.084-5.869a7.547,7.547,0,0,0-4.494-4.236c-.7-.247-1.747-.419-2.057.276-1.391,2.341-4.615.408-6.831,1.246-4.195.708-7.3,2.8-8.35,7.152a1.6,1.6,0,0,1-1.3,1.294,17.418,17.418,0,0,0-9.245,6.918c-3.9,5.606-5.218,12.044-5.887,18.681-.005,1.742,2.71,1.174,3.765,2.091,5.172,2.587,7.678,7.054,8.7,12.526.116.615-.011,1.278.987,1.272,5.317-.029,10.635-.018,15.954-.007,1.523.039.271-3.371.926-4.493a1.628,1.628,0,0,0-.978-1.871c-5.609-2.714-6.256-8.8-8.915-13.691-.737-.718.438-.788.639-.073a6.682,6.682,0,0,0,6.13,2.984c6.181.27,8.648-6.813,14.641-7.129.592-.056,1.212-.2,1.033-1.04-.167-.781.51-1.783-.776-2.271-4.045-1.533-6.255-4.767-7.577-8.65-3.513-9.656,22.731-9.682,19.153.029-1.332,3.976-3.627,7.16-7.71,8.724-1.214.464-.435,1.437-.624,2.157-.132.5,0,.917.673.972,7.97,1.042,14.073,13.776,21.893,3.41.074,1.64-1.343,2.414-1.8,3.788a14.9,14.9,0,0,1-7.527,11.006c-1.608.872.08,3.3-.513,4.841-.515,2.806,10.651.622,12.948,1.327,1.3.022,1.673-.1,1.266-1.587-1.26-5.253-4.425-15.069,2.669-17.343.648-.134.928-.348.989-1.1.407-5.046,4.338-7.423,9.169-5.606,4.382,2.2-4.134-14.9-12.235-15.967a1.354,1.354,0,0,1-1.056-1.168,8.639,8.639,0,0,0-6.025-6.585,16.84,16.84,0,0,0-7.227-.714c-.466.043-1.159.494-1.444-.41-.444-1.41-1.586-1.317-2.6-.946a7.367,7.367,0,0,0-4.534,4.586c-.263.714-.128,1.065.6,1.3a12.659,12.659,0,0,1,6.41,4.5c2.475-7,10.909-3.62,8.836,2.266-1.2,2.879-4.622,3.486-7.142,1.762,1.044,3.352,3.091,5.77,5.147,8.184l-.4.263c-10.1-7.729-5.3-18.1-24.076-15.157-8.785,1.116-8.217,11.75-15.358,15.446l-.333-.239c2.177-2.408,4.266-4.846,5.272-8.029ZM326.421,299.1c-.182,2.722.757,7.789,4.694,6.757A3.3,3.3,0,0,0,334,302.57c.057-.64.35-1.136,1.058-1.178,2.475.36,1.085,5.816,5.55,5.036,6.646-1.063,3.167-4.338,5.608-6.258,2.373-.178,1.756,4.506,5.392,2.13,6.083-4.879-.866-15.37-6.831-17.022C335.213,282.428,326.428,288.905,326.421,299.1Zm106.146-1.55c2.416-.591,14.551,1.4,14.2-1.216-.369-5.925,1.852-19.3-7.153-18.793-1.363.227-1.752-.169-1.531-1.629.449-3.969-5.8-5.2-6.963-1.165-1.482,2.807-3.686-2.909-7.284-.623-3.705,1.086-.157,6.606-3.39,6.811-7.261.155-2.7,11.9-1.782,16.127.234.8.861.471,1.31.474C424.173,297.563,428.37,297.551,432.567,297.549ZM387.921,302c-.556-.128-.487-.448-.485-.671.057-4.142-.482-8.252-.648-12.382-.113-2.834-.074-2.836-2.868-3.6-6.738-2.107-7.971,6.973-7.62,11.68.195,12,21.928,12.035,22.853.966,1.017-5.737-1.392-16.112-9.131-12.136C387.591,287.679,388.864,298.322,387.921,302Zm-16.412-66.987c-3.113-5.154-5.956-10.236-9.662-14.77-8-4.36-11,22.74-10.795,27.972A38.949,38.949,0,0,1,371.509,235.015Zm52.661,13.114c-.045-5.845-2.5-31.3-10.691-28.036-3.792,4.594-6.7,9.748-9.754,14.9A38.917,38.917,0,0,1,424.17,248.129Zm-36.178-8.612a59.055,59.055,0,0,0-1.239,10.666c-.05,1.119,1.027.412,1.565.573C389.992,251.15,387.748,241.2,387.992,239.517Zm18.744,14.377c-1.6-.136-1.567,2.433-.031,2.271C408.2,256.263,408.185,253.814,406.736,253.894Zm-34.041,1.17c-.068-1.506-2.5-1.552-2.407,0C370.266,256.519,372.547,256.5,372.7,255.064Z" transform="translate(-296.619 -213.208)"/><path class="b" d="M417.531,330.206c.95-3.714-.34-14.271,2.1-16.141,7.739-3.973,10.15,6.4,9.132,12.137-.925,11.068-22.659,11.038-22.852-.966-.36-4.706.887-13.786,7.618-11.68,2.795.762,2.756.763,2.869,3.6.165,4.13.7,8.24.648,12.382C417.044,329.758,416.975,330.079,417.531,330.206Z" transform="translate(-326.23 -241.412)"/><path class="c" d="M400.3,279.822l.364-.051-.147.305Z" transform="translate(-324.661 -231.986)"/><path class="d" d="M449.251,290.519l1.3,1.207a2.5,2.5,0,0,1-1.7-.945Z" transform="translate(-338.36 -235.019)"/><path class="d" d="M392.894,291.411l.406-.456.333.239-.537.476Z" transform="translate(-322.573 -235.142)"/><path class="d" d="M393.01,291.849c-.3.279-.665.025-.2-.259Z" transform="translate(-322.486 -235.321)"/><g class="e" transform="translate(121.416 60.477)"><path class="f" d="M478.829,319.11c-7.2.561-5.324-7.029-1.978-10.129C484.224,303.048,495.925,318.989,478.829,319.11Z" transform="translate(-466.837 -300.331)"/><path class="f" d="M494.463,308.908c-3.146.169-2.99-4.764-.061-4.794C497.4,304.087,497.581,308.909,494.463,308.908Z" transform="translate(-471.991 -299.331)"/><path class="f" d="M476.059,302.048c-.008,3.148-4.709,3.06-4.678-.06C471.324,299.011,476.262,298.817,476.059,302.048Z" transform="translate(-466.13 -298.083)"/><path class="f" d="M485.976,302.235c-3.076.052-2.933-4.814.027-4.783C488.982,297.505,489.118,302.255,485.976,302.235Z" transform="translate(-469.613 -297.452)"/><path class="f" d="M464.073,311.936c.047-3.225,4.554-3.036,4.676.021C468.848,314.949,463.88,315.055,464.073,311.936Z" transform="translate(-464.067 -300.876)"/></g></svg>