<svg xmlns="http://www.w3.org/2000/svg" width="46" height="46" viewBox="0 0 46 46"><defs><style>.a{fill:#fff;stroke:#707070;opacity:0.45;}.b{fill:#a85d92;}.c{stroke:none;}.d{fill:none;}</style></defs><g transform="translate(-937 -32)"><g class="a" transform="translate(937 32)"><circle class="c" cx="23" cy="23" r="23"/><circle class="d" cx="23" cy="23" r="22.5"/></g><g transform="translate(949.667 45)"><g transform="translate(0)"><path class="b" d="M17.972,13.611a10.487,10.487,0,0,0-4-2.509,6.086,6.086,0,1,0-6.887,0A10.545,10.545,0,0,0,0,21.056H1.645a8.883,8.883,0,1,1,17.766,0h1.645A10.459,10.459,0,0,0,17.972,13.611Zm-7.444-3.084a4.441,4.441,0,1,1,4.441-4.441A4.446,4.446,0,0,1,10.528,10.528Z" transform="translate(0)"/></g></g></g></svg>