<svg xmlns="http://www.w3.org/2000/svg" width="22.233" height="28.978" viewBox="0 0 22.233 28.978"><defs><style>.a{fill:#49c874;}.b{fill:none;stroke:#014141;stroke-linecap:round;stroke-linejoin:round;stroke-width:2px;}</style></defs><g transform="translate(-511.1 -55)"><g transform="translate(-96 2.5)"><path class="a" d="M623.74,55.736S605.2,54.05,613.3,75.033c1.853,4.805,3.294,3.053,3.622,4.5,1.526,3.918-3.9-3.653-3.9-3.653L611.5,74.283l-2.1-4.946-1.2-4.8V59.9l3.3-3.9,3.3-1.8h4.8Z" transform="translate(-0.025 -0.175)"/><g transform="translate(608.1 53.5)"><path class="b" d="M24.733,11.617c0,7.869-10.117,16.861-10.117,16.861S4.5,19.485,4.5,11.617a10.117,10.117,0,1,1,20.233,0Z" transform="translate(-4.5 -1.5)"/><path class="b" d="M20.244,13.872A3.372,3.372,0,1,1,16.872,10.5a3.372,3.372,0,0,1,3.372,3.372Z" transform="translate(-6.756 -3.756)"/></g></g></g></svg>