<svg xmlns="http://www.w3.org/2000/svg" xmlns:xlink="http://www.w3.org/1999/xlink" width="106.5" height="15.792" viewBox="0 0 106.5 15.792"><defs><style>.a{fill:none;}.b{clip-path:url(#a);}.c{fill:#eba23d;}</style><clipPath id="a"><rect class="a" width="106.5" height="15.792"/></clipPath></defs><g class="b"><g transform="translate(-413 -3619)"><path class="c" d="M27.864.537,25.85,4.62l-4.506.657A.987.987,0,0,0,20.8,6.961l3.26,3.177-.771,4.487a.986.986,0,0,0,1.431,1.039l4.031-2.119,4.031,2.119a.987.987,0,0,0,1.431-1.039l-.771-4.487L36.7,6.961a.987.987,0,0,0-.546-1.684L31.649,4.62,29.635.537a.988.988,0,0,0-1.77,0Z" transform="translate(392.5 3619.013)"/></g><g transform="translate(-391 -3619)"><path class="c" d="M27.864.537,25.85,4.62l-4.506.657A.987.987,0,0,0,20.8,6.961l3.26,3.177-.771,4.487a.986.986,0,0,0,1.431,1.039l4.031-2.119,4.031,2.119a.987.987,0,0,0,1.431-1.039l-.771-4.487L36.7,6.961a.987.987,0,0,0-.546-1.684L31.649,4.62,29.635.537a.988.988,0,0,0-1.77,0Z" transform="translate(392.5 3619.013)"/></g><g transform="translate(-369 -3619)"><path class="c" d="M27.864.537,25.85,4.62l-4.506.657A.987.987,0,0,0,20.8,6.961l3.26,3.177-.771,4.487a.986.986,0,0,0,1.431,1.039l4.031-2.119,4.031,2.119a.987.987,0,0,0,1.431-1.039l-.771-4.487L36.7,6.961a.987.987,0,0,0-.546-1.684L31.649,4.62,29.635.537a.988.988,0,0,0-1.77,0Z" transform="translate(392.5 3619.013)"/></g><g transform="translate(-347 -3619)"><path class="c" d="M27.864.537,25.85,4.62l-4.506.657A.987.987,0,0,0,20.8,6.961l3.26,3.177-.771,4.487a.986.986,0,0,0,1.431,1.039l4.031-2.119,4.031,2.119a.987.987,0,0,0,1.431-1.039l-.771-4.487L36.7,6.961a.987.987,0,0,0-.546-1.684L31.649,4.62,29.635.537a.988.988,0,0,0-1.77,0Z" transform="translate(392.5 3619.013)"/></g><g transform="translate(-325 -3619)"><path class="c" d="M27.864.537,25.85,4.62l-4.506.657A.987.987,0,0,0,20.8,6.961l3.26,3.177-.771,4.487a.986.986,0,0,0,1.431,1.039l4.031-2.119,4.031,2.119a.987.987,0,0,0,1.431-1.039l-.771-4.487L36.7,6.961a.987.987,0,0,0-.546-1.684L31.649,4.62,29.635.537a.988.988,0,0,0-1.77,0Z" transform="translate(392.5 3619.013)"/></g></g></svg>