<?xml version="1.0" standalone="no"?>
<!DOCTYPE svg PUBLIC "-//W3C//DTD SVG 20010904//EN"
 "http://www.w3.org/TR/2001/REC-SVG-20010904/DTD/svg10.dtd">
<svg version="1.0" xmlns="http://www.w3.org/2000/svg"
 width="64.000000pt" height="64.000000pt" viewBox="0 0 64.000000 64.000000"
 preserveAspectRatio="xMidYMid meet">

<g transform="translate(0.000000,64.000000) scale(0.100000,-0.100000)"
fill="#000000" stroke="none">
<path d="M131 590 c-48 -11 -83 -40 -109 -91 -52 -98 -7 -204 136 -320 42 -34
96 -80 119 -102 l42 -40 55 49 c55 50 71 84 38 84 -9 0 -34 -14 -55 -31 l-37
-30 -102 83 c-57 46 -118 106 -136 133 -31 45 -34 56 -30 104 4 45 10 59 36
82 59 53 128 50 188 -6 20 -19 40 -35 44 -35 5 0 23 15 42 34 57 57 131 60
189 8 25 -23 33 -38 36 -78 6 -61 -10 -96 -75 -166 -34 -37 -43 -51 -34 -60
29 -29 130 78 153 163 43 160 -118 278 -266 196 l-47 -27 -41 24 c-50 28 -99
37 -146 26z"/>
<path d="M257 423 c-14 -13 -7 -43 13 -53 15 -8 21 -6 30 11 17 30 -20 66 -43
42z"/>
<path d="M341 416 c-9 -11 -10 -20 -1 -35 9 -18 14 -19 31 -10 13 6 19 18 17
32 -4 26 -30 34 -47 13z"/>
<path d="M204 345 c-9 -22 22 -53 37 -38 15 15 7 47 -14 51 -9 2 -20 -4 -23
-13z"/>
<path d="M397 353 c-11 -10 -8 -41 4 -49 16 -9 43 21 36 40 -7 16 -28 21 -40
9z"/>
<path d="M271 296 c-25 -40 -27 -72 -5 -80 23 -9 97 -7 113 3 18 12 7 58 -21
89 -31 32 -62 28 -87 -12z"/>
</g>
</svg>
