<svg xmlns="http://www.w3.org/2000/svg" width="123.739" height="62.5" viewBox="0 0 123.739 62.5">
  <g id="Group_747" data-name="Group 747" transform="translate(-253.787 -213.208)">
    <path id="Path_484" data-name="Path 484" d="M550.97,359.822a2.066,2.066,0,0,0-1.225,1.074,1.543,1.543,0,0,0,1.905,2.217,2.065,2.065,0,0,0,1.226-1.074A1.544,1.544,0,0,0,550.97,359.822Z" transform="translate(-186.296 -92.29)" fill="#ee5b4b"/>
    <path id="Path_485" data-name="Path 485" d="M256.912,349.954h4.123a7.985,7.985,0,0,1,2.793.416,4.922,4.922,0,0,1,1.762,1.081,4.606,4.606,0,0,1,1.263,3.408,6.4,6.4,0,0,1-.482,2.477,6.473,6.473,0,0,1-1.429,2.111,6.875,6.875,0,0,1-2.56,1.6,10.379,10.379,0,0,1-3.541.548h-5.054Zm2.361,8.246a4.953,4.953,0,0,0,1.621-.249,3.016,3.016,0,0,0,1.172-.7,2.879,2.879,0,0,0,.6-.906,2.693,2.693,0,0,0,.233-1.072,2.2,2.2,0,0,0-.125-.8,1.6,1.6,0,0,0-.358-.549,1.84,1.84,0,0,0-.731-.432,3.7,3.7,0,0,0-1.147-.149h-.648l-1.3,4.854Z" transform="translate(0 -86.133)" fill="#fff"/>
    <path id="Path_486" data-name="Path 486" d="M294.208,349.9h3.99l.15,5.586,3.374-5.619h3.358l.382,5.619L308.6,349.9h4.09l-6.949,11.72h-3.391l-.5-5.785-3.591,5.785h-3.391Z" transform="translate(-25.46 -86.077)" fill="#fff"/>
    <path id="Path_487" data-name="Path 487" d="M340.988,349.954h3.89l-3.125,11.637h-3.89Z" transform="translate(-52.957 -86.133)" fill="#fff"/>
    <path id="Path_488" data-name="Path 488" d="M361.355,361.416a7.635,7.635,0,0,1-2.12-.3,5.455,5.455,0,0,1-1.845-.923,4.574,4.574,0,0,1-1.3-1.6,5.225,5.225,0,0,1-.491-2.36,6.779,6.779,0,0,1,.54-2.693,6.6,6.6,0,0,1,1.538-2.211,7.254,7.254,0,0,1,2.419-1.5,8.782,8.782,0,0,1,3.183-.549,7.317,7.317,0,0,1,1.571.166,8.021,8.021,0,0,1,1.388.432,5.823,5.823,0,0,1,1.122.615,4.039,4.039,0,0,1,.789.715l-2.427,2.493a3.952,3.952,0,0,0-1.205-.756,3.87,3.87,0,0,0-1.488-.291,3.935,3.935,0,0,0-1.488.266,3.221,3.221,0,0,0-1.105.723,3.128,3.128,0,0,0-.69,1.08,3.625,3.625,0,0,0-.241,1.322,2.262,2.262,0,0,0,.183.948,2.019,2.019,0,0,0,.491.673,1.973,1.973,0,0,0,.723.407,2.81,2.81,0,0,0,.865.133,2.51,2.51,0,0,0,1.014-.183l.382-1.247h-1.912l.632-2.477h5.6l-1.663,5.921a9.063,9.063,0,0,1-4.472,1.194Z" transform="translate(-64.131 -85.709)" fill="#fff"/>
    <path id="Path_489" data-name="Path 489" d="M467.372,349.954h4.122a7.985,7.985,0,0,1,2.793.416,4.92,4.92,0,0,1,1.762,1.081,4.606,4.606,0,0,1,1.263,3.408,6.406,6.406,0,0,1-.482,2.477,6.474,6.474,0,0,1-1.43,2.111,6.873,6.873,0,0,1-2.56,1.6,10.378,10.378,0,0,1-3.541.548h-5.054Zm2.361,8.246a4.952,4.952,0,0,0,1.621-.249,3.014,3.014,0,0,0,1.172-.7,2.871,2.871,0,0,0,.6-.906,2.692,2.692,0,0,0,.233-1.072,2.186,2.186,0,0,0-.125-.8,1.594,1.594,0,0,0-.357-.549,1.837,1.837,0,0,0-.731-.432,3.694,3.694,0,0,0-1.147-.149h-.648l-1.3,4.854Z" transform="translate(-132.563 -86.133)" fill="#fff"/>
    <path id="Path_490" data-name="Path 490" d="M507.444,361.428a6.511,6.511,0,0,1-2.344-.407,5.615,5.615,0,0,1-1.828-1.114,4.963,4.963,0,0,1-1.188-1.67,5.1,5.1,0,0,1-.424-2.078,6.576,6.576,0,0,1,.524-2.585,7.1,7.1,0,0,1,1.438-2.186,6.825,6.825,0,0,1,2.169-1.5,6.626,6.626,0,0,1,2.718-.557,6.511,6.511,0,0,1,2.344.407,5.636,5.636,0,0,1,1.828,1.114,4.987,4.987,0,0,1,1.189,1.671,5.1,5.1,0,0,1,.424,2.078,6.571,6.571,0,0,1-.524,2.585,7.094,7.094,0,0,1-1.438,2.186,6.821,6.821,0,0,1-2.169,1.505A6.634,6.634,0,0,1,507.444,361.428ZM507.71,358a2.228,2.228,0,0,0,1.105-.274,2.862,2.862,0,0,0,.839-.707,3.243,3.243,0,0,0,.54-.981,3.318,3.318,0,0,0,.191-1.1,2.582,2.582,0,0,0-.141-.865,2.1,2.1,0,0,0-.407-.7,1.787,1.787,0,0,0-.673-.465,2.419,2.419,0,0,0-.923-.167,2.226,2.226,0,0,0-1.106.274,2.878,2.878,0,0,0-.839.707,3.238,3.238,0,0,0-.54.981,3.31,3.31,0,0,0-.191,1.1,2.576,2.576,0,0,0,.141.865,2.1,2.1,0,0,0,.407.7,1.8,1.8,0,0,0,.665.466A2.4,2.4,0,0,0,507.71,358Z" transform="translate(-156.128 -85.737)" fill="#fff"/>
    <rect id="Rectangle_102" data-name="Rectangle 102" width="7.579" height="0.924" rx="0.462" transform="translate(369.948 266.87)" fill="#ee5b4b"/>
    <rect id="Rectangle_103" data-name="Rectangle 103" width="3.877" height="0.924" rx="0.462" transform="translate(369.208 272.413)" fill="#ee5b4b"/>
    <rect id="Rectangle_104" data-name="Rectangle 104" width="5.728" height="0.924" rx="0.462" transform="translate(369.208 269.642)" fill="#ee5b4b"/>
    <path id="Path_491" data-name="Path 491" d="M394.485,354.4a3.227,3.227,0,0,1,1.106-.723,3.934,3.934,0,0,1,1.488-.266,3.872,3.872,0,0,1,1.488.291,3.954,3.954,0,0,1,1.205.756l2.427-2.493c-.054-.067-.114-.133-.178-.2a15.067,15.067,0,0,1-2.125.048,14.609,14.609,0,0,1-5.432-1.334c-.106.035-.216.064-.319.1a7.257,7.257,0,0,0-2.419,1.5,6.6,6.6,0,0,0-1.538,2.211,6.778,6.778,0,0,0-.54,2.693,5.229,5.229,0,0,0,.49,2.36,4.576,4.576,0,0,0,1.3,1.6,5.46,5.46,0,0,0,1.845.923,7.634,7.634,0,0,0,2.119.3,9.059,9.059,0,0,0,4.472-1.194l1.663-5.921h-5.6l-.632,2.477h1.912l-.382,1.247a2.508,2.508,0,0,1-1.014.183,2.813,2.813,0,0,1-.864-.133,1.972,1.972,0,0,1-.723-.407,2.008,2.008,0,0,1-.49-.673,2.259,2.259,0,0,1-.183-.948,3.627,3.627,0,0,1,.241-1.322A3.133,3.133,0,0,1,394.485,354.4Z" transform="translate(-85.574 -86.465)" fill="#fff"/>
    <path id="Path_492" data-name="Path 492" d="M434.679,349.954l-3.025,3.89-.935-3.839a15.414,15.414,0,0,1-3.7,1.213l1.878,5.934-1.18,4.439h3.89l1.064-3.956,6.616-7.68Z" transform="translate(-109.113 -86.133)" fill="#fff"/>
    <g id="Group_124" data-name="Group 124" transform="translate(269.018 213.208)">
      <rect id="Rectangle_105" data-name="Rectangle 105" width="14.805" height="1.481" rx="0.74" transform="translate(0 43.479)" fill="#2d1a10"/>
      <rect id="Rectangle_106" data-name="Rectangle 106" width="62.181" height="1.481" rx="0.74" transform="translate(30.35 43.479)" fill="#2d1a10"/>
      <path id="Path_493" data-name="Path 493" d="M300.914,257.025c3.457-.95,7.492-.083,11.134-.349,1.956-.129.008-6.329,7.62-7.6.847-.154.894-.576.956-1.165a37.611,37.611,0,0,1,2.705-10.831c1.045-1.62,1.042-3.437,1.134-5.273.254-5.04.959-10,3.128-14.639.852-1.382,2-4.663,4.021-3.82,3.424,2.431,5.2,6.548,7.262,10.083a.805.805,0,0,0,.994.513,46.674,46.674,0,0,1,11.474-.006.8.8,0,0,0,.987-.516c2.03-3.514,3.817-7.482,7.121-10,5.354-1.456,7.7,17.283,7.413,21.1.837,2.42,2.143,4.705,2.649,7.267a.807.807,0,0,0,.716.718,2.868,2.868,0,0,1,2.575,2.287c.03.149.062.241.239.256,2.687.23,3.395,2.236,3.9,4.387a22.675,22.675,0,0,1,.337,6.125c-.044,1.107-.041,1.106,1.028,1.106,1.262.355,14.784-1.019,11.569,1.194-12.115.061-24.236.007-36.353.009-2.059.212-1.186,3.83-6.173,4.369-3.207.512-7.226-.407-8.384-3.816a.727.727,0,0,0-.834-.55c-1.933.33-7.993-.669-8.93.5-.978,2.466-2.368,2.056-4.413,2.234-.768,1.38-2.222,1.506-3.472,2.007a3.028,3.028,0,0,1-2.715-1.421c-1.979,1.9-4.821,1.345-5.52-1.4-.308-.736.121-2.015-1.081-1.926C310.368,257.526,300.471,258.806,300.914,257.025Zm36.776-19.154a2.338,2.338,0,0,1-3.19-3.015c.868-2.095,3.945-1.606,4.479.5.754-1.572,4.356-2.057,3.652-3.026a3.891,3.891,0,0,0-2.317-2.184c-.362-.127-.9-.216-1.061.142-.717,1.207-2.379.211-3.522.643a4.785,4.785,0,0,0-4.305,3.687.822.822,0,0,1-.671.667,8.98,8.98,0,0,0-4.767,3.567c-2.012,2.89-2.69,6.21-3.035,9.632,0,.9,1.4.605,1.941,1.078a8.4,8.4,0,0,1,4.487,6.458c.06.317-.005.659.509.656,2.742-.015,5.483-.009,8.225,0,.785.02.14-1.738.477-2.317a.839.839,0,0,0-.5-.965c-2.892-1.4-3.225-4.537-4.6-7.059-.38-.37.226-.406.329-.038a3.445,3.445,0,0,0,3.16,1.539c3.187.139,4.459-3.513,7.549-3.675.305-.029.625-.1.532-.536-.086-.4.263-.919-.4-1.171a6.666,6.666,0,0,1-3.907-4.46c-1.811-4.979,11.72-4.992,9.875.015a6.721,6.721,0,0,1-3.975,4.5c-.626.24-.224.741-.322,1.112-.068.259,0,.473.347.5,4.109.537,7.256,7.1,11.287,1.758.038.845-.693,1.245-.929,1.953a7.684,7.684,0,0,1-3.881,5.674c-.829.45.041,1.7-.265,2.5-.266,1.447,5.491.32,6.676.684.669.011.862-.053.653-.818-.65-2.709-2.282-7.769,1.376-8.942.334-.069.479-.179.51-.569.21-2.6,2.237-3.827,4.727-2.89,2.259,1.135-2.131-7.682-6.308-8.232a.7.7,0,0,1-.544-.6,4.454,4.454,0,0,0-3.106-3.4,8.684,8.684,0,0,0-3.726-.368c-.24.022-.6.255-.744-.211-.229-.727-.818-.679-1.342-.488a3.8,3.8,0,0,0-2.338,2.364c-.136.368-.066.549.308.672a6.526,6.526,0,0,1,3.3,2.321c1.276-3.611,5.624-1.866,4.556,1.169a2.4,2.4,0,0,1-3.682.908,11.97,11.97,0,0,0,2.654,4.219l-.2.136c-5.207-3.985-2.735-9.333-12.413-7.815-4.53.575-4.236,6.058-7.918,7.964l-.172-.123a11.43,11.43,0,0,0,2.718-4.139Zm-23.631,19.621c-.094,1.4.39,4.016,2.42,3.484a1.7,1.7,0,0,0,1.486-1.694c.029-.33.18-.585.546-.607,1.276.185.56,3,2.861,2.6,3.427-.548,1.633-2.237,2.891-3.226,1.224-.092.905,2.323,2.78,1.1,3.136-2.516-.446-7.924-3.522-8.777A7.174,7.174,0,0,0,314.058,257.492Zm54.727-.8c1.246-.3,7.5.722,7.323-.627-.19-3.055.955-9.953-3.688-9.69-.7.117-.9-.087-.789-.84.232-2.046-2.992-2.683-3.59-.6-.764,1.447-1.9-1.5-3.756-.321-1.91.56-.081,3.406-1.748,3.511-3.744.08-1.394,6.134-.919,8.315.121.413.444.243.676.244C364.457,256.7,366.621,256.694,368.784,256.693Zm-23.018,2.3c-.287-.066-.251-.231-.25-.346.03-2.136-.249-4.255-.334-6.384-.058-1.461-.038-1.462-1.479-1.855-3.474-1.086-4.11,3.595-3.928,6.022.1,6.189,11.306,6.2,11.783.5.524-2.958-.718-8.307-4.708-6.257C345.6,251.6,346.252,257.091,345.766,258.989ZM337.3,224.451a64.167,64.167,0,0,0-4.982-7.615c-4.124-2.248-5.672,11.725-5.566,14.422A20.082,20.082,0,0,1,337.3,224.451Zm27.151,6.761c-.023-3.014-1.29-16.139-5.512-14.455a59.168,59.168,0,0,0-5.029,7.681A20.065,20.065,0,0,1,364.455,231.212Zm-18.653-4.44a30.454,30.454,0,0,0-.639,5.5c-.026.577.529.212.807.3C346.834,232.77,345.677,227.643,345.8,226.772Zm9.664,7.413c-.824-.07-.808,1.254-.016,1.171C356.221,235.406,356.213,234.144,355.467,234.185Zm-17.551.6c-.035-.777-1.287-.8-1.241,0C336.663,235.538,337.84,235.527,337.916,234.788Z" transform="translate(-298.693 -213.208)" fill="#fff"/>
      <path id="Path_494" data-name="Path 494" d="M411.876,321.959c.49-1.915-.175-7.358,1.083-8.322,3.99-2.048,5.233,3.3,4.708,6.257-.477,5.706-11.682,5.691-11.782-.5-.185-2.426.457-7.108,3.928-6.022,1.441.393,1.421.393,1.479,1.855.085,2.129.364,4.248.334,6.384C411.624,321.728,411.589,321.893,411.876,321.959Z" transform="translate(-364.802 -276.178)" fill="#ee5b4b"/>
      <path id="Path_495" data-name="Path 495" d="M400.3,279.8l.188-.026-.076.157Z" transform="translate(-361.301 -255.134)" fill="#f9f9f8"/>
      <path id="Path_496" data-name="Path 496" d="M449.059,290.519l.671.623a1.29,1.29,0,0,1-.876-.487Z" transform="translate(-391.885 -261.904)" fill="#0b0b0b"/>
      <path id="Path_497" data-name="Path 497" d="M392.894,291.19l.21-.235.172.123-.277.245Z" transform="translate(-356.638 -262.179)" fill="#0b0b0b"/>
      <path id="Path_498" data-name="Path 498" d="M392.805,291.724c-.156.144-.343.013-.1-.134Z" transform="translate(-356.444 -262.579)" fill="#0b0b0b"/>
      <g id="Group_123" data-name="Group 123" transform="translate(62.6 31.181)" opacity="0.47">
        <g id="Group_122" data-name="Group 122">
          <path id="Path_499" data-name="Path 499" d="M476.433,313.562c-3.713.29-2.745-3.624-1.02-5.222C479.215,305.281,485.248,313.5,476.433,313.562Z" transform="translate(-470.251 -303.88)" fill="#552b25"/>
          <path id="Path_500" data-name="Path 500" d="M493.344,306.586c-1.622.087-1.542-2.456-.031-2.472A1.237,1.237,0,0,1,493.344,306.586Z" transform="translate(-481.758 -301.648)" fill="#552b25"/>
          <path id="Path_501" data-name="Path 501" d="M473.792,300.906a1.206,1.206,0,1,1-2.412-.031C471.351,299.34,473.9,299.24,473.792,300.906Z" transform="translate(-468.674 -298.861)" fill="#552b25"/>
          <path id="Path_502" data-name="Path 502" d="M484.885,299.918c-1.586.027-1.512-2.482.014-2.466A1.234,1.234,0,0,1,484.885,299.918Z" transform="translate(-476.449 -297.452)" fill="#552b25"/>
          <path id="Path_503" data-name="Path 503" d="M464.07,310.8a1.205,1.205,0,1,1,2.411.011C466.532,312.353,463.971,312.408,464.07,310.8Z" transform="translate(-464.067 -305.098)" fill="#552b25"/>
        </g>
      </g>
    </g>
    <path id="Path_504" data-name="Path 504" d="M349.59,322.107c-1.875,1.225-1.557-1.19-2.78-1.1-1.259.99.535,2.678-2.892,3.226-2.3.4-1.585-2.411-2.861-2.6-.366.022-.517.277-.546.607a1.7,1.7,0,0,1-1.486,1.694c-2.029.532-2.514-2.081-2.42-3.484a7.174,7.174,0,0,1,9.463-7.126C349.143,314.182,352.726,319.591,349.59,322.107Z" transform="translate(-52.158 -62.845)" fill="#fff"/>
    <path id="Path_505" data-name="Path 505" d="M547.944,358.15a.462.462,0,1,1,0-.923h2.139c.007-.016.015-.03.022-.046a6.557,6.557,0,0,0,.473-1.8h-1.154a.462.462,0,1,1,0-.924h1.2a5.113,5.113,0,0,0-.383-1.848h-1.555a.462.462,0,1,1,0-.924h1.053a5.007,5.007,0,0,0-.721-.837,5.631,5.631,0,0,0-1.829-1.114,6.508,6.508,0,0,0-2.344-.407,6.626,6.626,0,0,0-2.718.557,6.823,6.823,0,0,0-2.169,1.5,7.1,7.1,0,0,0-1.438,2.186,6.576,6.576,0,0,0-.524,2.585,5.108,5.108,0,0,0,.424,2.078,4.974,4.974,0,0,0,1.188,1.67,5.613,5.613,0,0,0,1.829,1.114,6.512,6.512,0,0,0,2.344.407,6.637,6.637,0,0,0,2.718-.557,6.824,6.824,0,0,0,2.169-1.505,7,7,0,0,0,.933-1.217Zm-.693-3.235a3.668,3.668,0,0,1-.857,1.865l0,0h0c-.573.644-2.07,2.353-2.884,3.267a.244.244,0,0,1-.378.018c-.006-.007-.014-.01-.019-.018l-1.93-3.206a2.844,2.844,0,0,1-.4-1.706,3.946,3.946,0,0,1,3.61-3.446A2.741,2.741,0,0,1,547.25,354.915Z" transform="translate(-179.014 -85.737)" fill="#ee5b4b"/>
  </g>
</svg>
