<svg xmlns="http://www.w3.org/2000/svg" width="68" height="45.351" viewBox="0 0 68 45.351"><defs><style>.a{fill:#ffe07d;}.b{fill:#ffd064;}.c{fill:#95d6a4;}.d{fill:#78c2a4;}.e{fill:#f0f7ff;}</style></defs><g transform="translate(0 -490)"><g transform="translate(0 490)"><path class="a" d="M237.047,176.662a1.576,1.576,0,0,1,.833-1.735c5.66-2.86,9.4-7.82,9.4-13.459,0-7.019-5.8-12.984-13.877-15.16-10.343.479-18.541,7.15-18.541,15.311,0,8.472,8.834,15.339,19.732,15.339h.08a1.5,1.5,0,0,1,1.306.745,7.975,7.975,0,0,0,.759,1.1l.708-.664C237.27,177.545,237.12,177,237.047,176.662Z" transform="translate(-186.328 -138.201)"/><path class="b" d="M346.039,174.3c5.412-2.735,8.992-7.477,8.992-12.869,0-8.472-8.834-15.339-19.732-15.339a25.25,25.25,0,0,0-4.309.368c8.825,1.528,15.423,7.651,15.423,14.972,0,5.392-3.579,10.134-8.992,12.869a1.507,1.507,0,0,0-.8,1.659,16.711,16.711,0,0,0,.818,2.657c2.848,3.526,8.084,4.491,10.257,4.744a.463.463,0,0,0,.445-.71,21.47,21.47,0,0,1-2.9-6.691,1.507,1.507,0,0,1,.8-1.659Z" transform="translate(-287.03 -138.015)"/><path class="c" d="M21.614,87.366C9.336,88.953,0,97.244,0,107.24a17.513,17.513,0,0,0,5.641,12.551,1.6,1.6,0,0,1,.422,1.566,30.968,30.968,0,0,1-4.9,9.6,1.739,1.739,0,0,0,1.814.409c3.588-1.282,5.213-2.655,7.878-5.493a2.319,2.319,0,0,1,2.66-.515q.908.417,1.862.775a5.378,5.378,0,0,0,2.437.348,1.617,1.617,0,0,1,.54.035,30.782,30.782,0,0,0,3.271.594l4.935-.159C36.953,124.079,44.4,116.364,44.4,107.3c0-9.351-7.915-17.263-18.82-19.912Z" transform="translate(0 -87.087)"/><g transform="translate(0.545)"><path class="d" d="M13.648,366.8c-2.912,3.1-4.582,4.453-8.929,5.848-.188.255-.36.483-.511.676a.5.5,0,0,0,.405.8c2.869-.072,10.916-.714,15.789-5.5a1.615,1.615,0,0,1,1.507-.416l0-.007a29.984,29.984,0,0,1-5.6-1.917A2.317,2.317,0,0,0,13.648,366.8Z" transform="translate(-4.103 -328.781)"/><path class="d" d="M167.048,85.267a33.414,33.414,0,0,0-4.309.279c12.266,1.6,21.614,9.885,21.614,19.874s-9.343,18.274-21.6,19.872a33.343,33.343,0,0,0,4.3.28c14.317,0,25.922-9.022,25.922-20.152S181.364,85.267,167.048,85.267Z" transform="translate(-141.67 -85.267)"/></g><g transform="translate(7.425 17.508)"><circle class="e" cx="2.53" cy="2.53" r="2.53"/><circle class="e" cx="2.53" cy="2.53" r="2.53" transform="translate(10.146)"/><circle class="e" cx="2.53" cy="2.53" r="2.53" transform="translate(20.291)"/><circle class="e" cx="2.53" cy="2.53" r="2.53" transform="translate(30.437)"/></g></g></g></svg>