<svg xmlns="http://www.w3.org/2000/svg" width="34.543" height="36" viewBox="0 0 34.543 36"><defs><style>.a{opacity:0.56;}.b{fill:#014141;}</style></defs><g class="a" transform="translate(-10.359 0.002)"><g transform="translate(10.359 -0.002)"><g transform="translate(0)"><path class="b" d="M43.237,18.464a1.055,1.055,0,0,1,0-.933l1.343-2.747a3.125,3.125,0,0,0-1.348-4.15L40.53,9.2a1.055,1.055,0,0,1-.548-.754l-.528-3.011a3.125,3.125,0,0,0-3.53-2.565L32.9,3.3a1.055,1.055,0,0,1-.887-.288L29.812.886a3.125,3.125,0,0,0-4.364,0l-2.2,2.126a1.055,1.055,0,0,1-.887.288l-3.027-.428a3.125,3.125,0,0,0-3.53,2.565l-.528,3.011a1.055,1.055,0,0,1-.548.754l-2.7,1.433a3.125,3.125,0,0,0-1.348,4.15l1.343,2.747a1.055,1.055,0,0,1,0,.933l-1.343,2.747a3.125,3.125,0,0,0,1.348,4.15l2.7,1.433a1.055,1.055,0,0,1,.548.754l.528,3.011a3.123,3.123,0,0,0,3.081,2.6,3.211,3.211,0,0,0,.45-.032l3.027-.428a1.055,1.055,0,0,1,.887.288l2.2,2.126a3.125,3.125,0,0,0,4.364,0l2.2-2.126A1.056,1.056,0,0,1,32.9,32.7l3.027.428a3.125,3.125,0,0,0,3.53-2.565l.528-3.011a1.055,1.055,0,0,1,.548-.754l2.7-1.433a3.125,3.125,0,0,0,1.348-4.15Zm-.979,5.063-2.7,1.433a3.118,3.118,0,0,0-1.62,2.23L37.409,30.2a1.057,1.057,0,0,1-1.194.868l-3.027-.428a3.117,3.117,0,0,0-2.621.852l-2.2,2.126a1.057,1.057,0,0,1-1.476,0l-2.2-2.126a3.115,3.115,0,0,0-2.174-.883,3.188,3.188,0,0,0-.447.032l-3.027.428a1.058,1.058,0,0,1-1.194-.868l-.528-3.011a3.118,3.118,0,0,0-1.62-2.23L13,23.527a1.057,1.057,0,0,1-.456-1.4l1.343-2.747a3.118,3.118,0,0,0,0-2.756l-1.343-2.747a1.057,1.057,0,0,1,.456-1.4l2.7-1.433a3.118,3.118,0,0,0,1.62-2.23L17.852,5.8a1.057,1.057,0,0,1,1.194-.868l3.027.428A3.118,3.118,0,0,0,24.695,4.5l2.2-2.126a1.057,1.057,0,0,1,1.476,0l2.2,2.126a3.118,3.118,0,0,0,2.621.852l3.027-.428a1.057,1.057,0,0,1,1.194.868l.528,3.011a3.118,3.118,0,0,0,1.62,2.23l2.7,1.433a1.057,1.057,0,0,1,.456,1.4L41.371,16.62a3.118,3.118,0,0,0,0,2.756l1.343,2.747A1.057,1.057,0,0,1,42.258,23.527Z" transform="translate(-10.359 0.002)"/></g></g><g transform="translate(19.741 10.108)"><path class="b" d="M159.267,144.1a1.038,1.038,0,0,0-1.468,0l-13.7,13.7a1.038,1.038,0,1,0,1.468,1.468l13.7-13.7A1.038,1.038,0,0,0,159.267,144.1Z" transform="translate(-143.791 -143.791)"/></g><g transform="translate(19.671 8.655)"><path class="b" d="M146.609,123.116a3.807,3.807,0,1,0,3.807,3.807A3.811,3.811,0,0,0,146.609,123.116Zm0,5.537a1.73,1.73,0,1,1,1.73-1.73A1.732,1.732,0,0,1,146.609,128.653Z" transform="translate(-142.802 -123.116)"/></g><g transform="translate(27.976 19.728)"><path class="b" d="M264.729,280.61a3.807,3.807,0,1,0,3.807,3.807A3.811,3.811,0,0,0,264.729,280.61Zm0,5.537a1.73,1.73,0,1,1,1.73-1.73A1.732,1.732,0,0,1,264.729,286.147Z" transform="translate(-260.922 -280.61)"/></g></g></svg>