<svg xmlns="http://www.w3.org/2000/svg" width="40.976" height="38" viewBox="0 0 40.976 38"><defs><style>.a{opacity:0.56;}.b{fill:#014141;}</style></defs><g class="a" transform="translate(0 -18.592)"><g transform="translate(0 18.592)"><g transform="translate(0 0)"><path class="b" d="M40.726,34.677a.8.8,0,0,0-.27-.467,5.045,5.045,0,0,1-1.729-3.351L38.7,30.73a.8.8,0,0,0-.676-.648,2.673,2.673,0,0,0-.371-.025,3.677,3.677,0,0,0-2.515,1.038.8.8,0,0,0-.213.445c-.057.43-.087.824-.113,1.171-.1,1.309-.185,1.447-.583,1.573a.8.8,0,0,0-.523.526,18.489,18.489,0,0,1-1.477,3.456c-.3-.569-.627-1.08-.933-1.556-.749-1.164-1.341-2.083-1.139-3.223.655-3.693.323-6.475-.989-8.268a5.264,5.264,0,0,0-3.035-2,3.527,3.527,0,0,1,2.371-3.056.8.8,0,0,0-.414-1.546,5.124,5.124,0,0,0-3.543,4.4,5.31,5.31,0,0,0-3.392,1.149c-1.744,1.394-2.8,3.984-3.133,7.7-.1,1.118-.824,1.77-1.824,2.672a11.594,11.594,0,0,0-2.456,2.8,9.913,9.913,0,0,0-2.9-.7A3.51,3.51,0,0,1,13.2,33.7a.8.8,0,1,0-.414-1.546,4.273,4.273,0,0,0-1.2.543,4.732,4.732,0,0,0-5.86-3.634.8.8,0,0,0-.567.567A4.749,4.749,0,0,0,6.385,34.2,4.7,4.7,0,0,0,9.456,35.58a6,6,0,0,0-.22,1.057,9.992,9.992,0,0,0,.755,19.954,9.9,9.9,0,0,0,5.668-1.763c.263.115.527.226.792.331a19.688,19.688,0,0,0,7.235,1.432,16.114,16.114,0,0,0,10.327-3.636,20.293,20.293,0,0,0,6.479-10.638A20.777,20.777,0,0,0,40.726,34.677Zm-23.45,1.052c1.077-.971,2.19-1.975,2.347-3.717.294-3.262,1.147-5.48,2.538-6.591a3.855,3.855,0,0,1,3.032-.755,3.8,3.8,0,0,1,2.689,1.5c1.044,1.428,1.281,3.8.7,7.044-.312,1.758.543,3.085,1.369,4.369A12.261,12.261,0,0,1,31.219,39.9a19.2,19.2,0,0,1-11.294,7.776,9.99,9.99,0,0,0-4.744-9.612A10.394,10.394,0,0,1,17.276,35.729ZM7.517,33.071a3.145,3.145,0,0,1-.9-2.547,3.173,3.173,0,0,1,.333-.018,3.11,3.11,0,0,1,2.214.917,3.144,3.144,0,0,1,.9,2.547,3.169,3.169,0,0,1-.333.018h0A3.11,3.11,0,0,1,7.517,33.071Zm2.474,21.92a8.383,8.383,0,1,1,8.279-7.016q-.772.1-1.554.126a6.871,6.871,0,0,0-.348-4.116.8.8,0,0,0-1.481.607,5.285,5.285,0,0,1,.185,3.484,17.6,17.6,0,0,1-3.423-.566.8.8,0,0,0-.67.12,4.591,4.591,0,0,0-1.853,2.358.8.8,0,0,0,.241.877A27.046,27.046,0,0,0,13.954,54,8.316,8.316,0,0,1,9.991,54.991ZM38.945,41.9c-2.2,8.195-7.9,13.087-15.26,13.087A20.882,20.882,0,0,1,10.857,50.02a2.85,2.85,0,0,1,.755-.866,19,19,0,0,0,4.549.559A19.324,19.324,0,0,0,28.138,45.48a21.321,21.321,0,0,0,4.609-4.985c.015-.02.029-.041.042-.062a20.419,20.419,0,0,0,2.334-4.786c1.122-.564,1.207-1.708,1.29-2.816.019-.253.038-.513.068-.788a2.167,2.167,0,0,1,.778-.339,6.272,6.272,0,0,0,1.939,3.53A19.359,19.359,0,0,1,38.945,41.9Z" transform="translate(0 -18.592)"/></g></g><g transform="translate(24.7 26.251)"><path class="b" d="M309.742,114.353a.8.8,0,0,0-.619,1.476c.582.244.9,2,.392,4.886a.8.8,0,1,0,1.576.28C311.549,118.414,311.687,115.168,309.742,114.353Z" transform="translate(-308.632 -114.29)"/></g><g transform="translate(29.648 48.9)"><path class="b" d="M371.913,397.615a.8.8,0,0,0-1.121-.159l0,0a.8.8,0,0,0,.948,1.29l.018-.013A.8.8,0,0,0,371.913,397.615Z" transform="translate(-370.462 -397.295)"/></g><g transform="translate(22.273 50.078)"><path class="b" d="M285.291,412.451a.8.8,0,0,0-1.077-.348,11.556,11.556,0,0,1-5.084,1.344.8.8,0,0,0-.06,1.6c.012,0,.055,0,.127,0a13.228,13.228,0,0,0,5.747-1.521A.8.8,0,0,0,285.291,412.451Z" transform="translate(-278.3 -412.015)"/></g><g transform="translate(13.498 41.493)"><path class="b" d="M170.052,305l-.026-.026a.8.8,0,1,0-1.129,1.135l.017.017A.8.8,0,1,0,170.052,305Z" transform="translate(-168.661 -304.744)"/></g></g></svg>