<svg xmlns="http://www.w3.org/2000/svg" width="28.446" height="27.244" viewBox="0 0 28.446 27.244"><defs><style>.a{opacity:0.5;}.b{fill:none;stroke:#000;stroke-linecap:round;stroke-linejoin:round;stroke-width:2px;}</style></defs><g class="a" transform="translate(1 1)"><path class="b" d="M14.4,31.2A1.2,1.2,0,1,1,13.2,30,1.2,1.2,0,0,1,14.4,31.2Z" transform="translate(-3.585 -7.16)"/><path class="b" d="M30.9,31.2A1.2,1.2,0,1,1,29.7,30,1.2,1.2,0,0,1,30.9,31.2Z" transform="translate(-6.862 -7.16)"/><path class="b" d="M1.5,1.5H6.308L9.53,17.6a2.4,2.4,0,0,0,2.4,1.935H23.618a2.4,2.4,0,0,0,2.4-1.935L27.946,7.51H7.51" transform="translate(-1.5 -1.5)"/></g></svg>