<svg xmlns="http://www.w3.org/2000/svg" width="19.894" height="18.903" viewBox="0 0 19.894 18.903">
  <g id="Icon_material-pets" data-name="Icon material-pets" transform="translate(0)">
    <path id="Path_519" data-name="Path 519" d="M7.973,12.987A2.487,2.487,0,1,1,5.487,10.5a2.487,2.487,0,0,1,2.487,2.487Z" transform="translate(-3 -6.521)" fill="#f3735f"/>
    <path id="Path_520" data-name="Path 520" d="M14.723,6.987A2.487,2.487,0,1,1,12.237,4.5,2.487,2.487,0,0,1,14.723,6.987Z" transform="translate(-5.274 -4.5)" fill="#f3735f"/>
    <path id="Path_521" data-name="Path 521" d="M23.723,6.987A2.487,2.487,0,1,1,21.237,4.5a2.487,2.487,0,0,1,2.487,2.487Z" transform="translate(-8.306 -4.5)" fill="#f3735f"/>
    <path id="Path_522" data-name="Path 522" d="M30.473,12.987A2.487,2.487,0,1,1,27.987,10.5,2.487,2.487,0,0,1,30.473,12.987Z" transform="translate(-10.58 -6.521)" fill="#f3735f"/>
    <path id="Path_523" data-name="Path 523" d="M19.266,20.087c-.865-1.015-1.591-1.88-2.467-2.895a4.22,4.22,0,0,0-1.741-1.313,2.014,2.014,0,0,0-.328-.09,5.006,5.006,0,0,0-.776-.04,4.173,4.173,0,0,0-.786.05,2.014,2.014,0,0,0-.328.09A4.285,4.285,0,0,0,11.1,17.2c-.865,1.015-1.591,1.88-2.467,2.895-1.3,1.3-2.9,2.745-2.606,4.765a3.123,3.123,0,0,0,2.318,2.308c.726.149,3.044-.438,5.511-.438h.179c2.467,0,4.784.577,5.511.438a3.138,3.138,0,0,0,2.318-2.308C22.17,22.832,20.569,21.39,19.266,20.087Z" transform="translate(-4.007 -8.29)" fill="#f3735f"/>
  </g>
</svg>
